Publica.ufo
<glyph name="exclam" format="2">
  <advance width="109"/>
  <unicode hex="0021"/>
  <outline>
    <contour>
      <point x="10" y="0" type="line"/>
      <point x="99" y="0" type="line"/>
      <point x="99" y="92" type="line" identifier="2hqZtBz54h"/>
      <point x="10" y="92" type="line" identifier="Tky8mbmNu2"/>
    </contour>
    <contour>
      <point x="81" y="162" type="line" identifier="CY6nWOTgYp"/>
      <point x="89" y="576" type="line"/>
      <point x="91" y="675" type="line"/>
      <point x="13" y="675" type="line"/>
      <point x="15" y="576" type="line"/>
      <point x="23" y="162" type="line" identifier="5k6wGcCwjZ"/>
    </contour>
  </outline>
</glyph>
<glyph name="quotedbl" format="2">
  <advance width="282"/>
  <unicode hex="0022"/>
  <outline>
    <contour>
      <point x="265" y="471" type="line"/>
      <point x="272" y="675" type="line"/>
      <point x="198" y="675" type="line" identifier="rXJXwE71gr"/>
      <point x="205" y="471" type="line"/>
    </contour>
    <contour>
      <point x="78" y="471" type="line"/>
      <point x="85" y="675" type="line" identifier="orEmGZzeoq"/>
      <point x="10" y="675" type="line"/>
      <point x="17" y="471" type="line"/>
    </contour>
  </outline>
</glyph>
<glyph name="numbersign" format="2">
  <advance width="516"/>
  <unicode hex="0023"/>
  <outline>
    <contour>
      <point x="117" y="1" type="line"/>
      <point x="247" y="605" type="line"/>
      <point x="187" y="605" type="line"/>
      <point x="56" y="1" type="line"/>
    </contour>
    <contour>
      <point x="484" y="224" type="line"/>
      <point x="10" y="224" type="line"/>
      <point x="10" y="172" type="line"/>
      <point x="484" y="172" type="line"/>
    </contour>
    <contour>
      <point x="31" y="376" type="line"/>
      <point x="506" y="376" type="line"/>
      <point x="506" y="428" type="line"/>
      <point x="31" y="428" type="line"/>
    </contour>
    <contour>
      <point x="327" y="1" type="line"/>
      <point x="458" y="605" type="line"/>
      <point x="398" y="605" type="line"/>
      <point x="266" y="1" type="line"/>
    </contour>
  </outline>
</glyph>
<glyph name="dollar" format="2">
  <advance width="508"/>
  <unicode hex="0024"/>
  <outline>
    <contour>
      <point x="218" y="93" type="line"/>
      <point x="218" y="-60" type="line"/>
      <point x="288" y="-60" type="line"/>
      <point x="288" y="90" type="line"/>
    </contour>
    <contour>
      <point x="288" y="520" type="line"/>
      <point x="288" y="654" type="line"/>
      <point x="218" y="654" type="line"/>
      <point x="218" y="520" type="line"/>
    </contour>
    <contour>
      <point x="441" y="203" type="curve" smooth="yes"/>
      <point x="441" y="302"/>
      <point x="356" y="328"/>
      <point x="279" y="343" type="curve" smooth="yes"/>
      <point x="179" y="365"/>
      <point x="151" y="387"/>
      <point x="151" y="428" type="curve" smooth="yes"/>
      <point x="151" y="473"/>
      <point x="191" y="497"/>
      <point x="255" y="497" type="curve" smooth="yes"/>
      <point x="315" y="497"/>
      <point x="362" y="478"/>
      <point x="362" y="429" type="curve"/>
      <point x="427" y="429" type="line"/>
      <point x="427" y="512"/>
      <point x="356" y="551"/>
      <point x="256" y="551" type="curve" smooth="yes"/>
      <point x="151" y="551"/>
      <point x="84" y="504"/>
      <point x="84" y="423" type="curve" smooth="yes"/>
      <point x="84" y="347"/>
      <point x="136" y="305"/>
      <point x="242" y="284" type="curve" smooth="yes"/>
      <point x="327" y="268"/>
      <point x="374" y="253"/>
      <point x="374" y="197" type="curve" smooth="yes"/>
      <point x="374" y="139"/>
      <point x="328" y="118"/>
      <point x="256" y="118" type="curve" smooth="yes"/>
      <point x="164" y="118"/>
      <point x="134" y="155"/>
      <point x="134" y="196" type="curve"/>
      <point x="66" y="196" type="line"/>
      <point x="66" y="97"/>
      <point x="149" y="66"/>
      <point x="254" y="66" type="curve" smooth="yes"/>
      <point x="379" y="66"/>
      <point x="441" y="114"/>
    </contour>
  </outline>
</glyph>
<glyph name="percent" format="2">
  <advance width="750"/>
  <unicode hex="0025"/>
  <outline>
    <contour>
      <point x="221" y="420" type="curve" smooth="yes" identifier="qW1cPNPGyD"/>
      <point x="221" y="310"/>
      <point x="192" y="273"/>
      <point x="147" y="273" type="curve" smooth="yes"/>
      <point x="97" y="273"/>
      <point x="70" y="309"/>
      <point x="70" y="420" type="curve" smooth="yes" identifier="ddnnW5H92Q"/>
      <point x="70" y="533"/>
      <point x="96" y="567"/>
      <point x="148" y="567" type="curve" smooth="yes"/>
      <point x="196" y="567"/>
      <point x="221" y="535"/>
    </contour>
    <contour>
      <point x="282" y="420" type="curve" smooth="yes" identifier="K9YWlkJDJ4"/>
      <point x="282" y="571"/>
      <point x="221" y="612"/>
      <point x="148" y="612" type="curve" smooth="yes"/>
      <point x="70" y="612"/>
      <point x="10" y="571"/>
      <point x="10" y="420" type="curve" smooth="yes" identifier="TADbBZ8X3M"/>
      <point x="10" y="274"/>
      <point x="69" y="226"/>
      <point x="146" y="226" type="curve" smooth="yes"/>
      <point x="221" y="226"/>
      <point x="282" y="275"/>
    </contour>
    <contour>
      <point x="608" y="606" type="line"/>
      <point x="544" y="606" type="line"/>
      <point x="140" y="1" type="line"/>
      <point x="203" y="1" type="line"/>
    </contour>
    <contour>
      <point x="678" y="188" type="curve" smooth="yes" identifier="fxnNgmzrBt"/>
      <point x="678" y="79"/>
      <point x="649" y="41"/>
      <point x="601" y="41" type="curve" smooth="yes"/>
      <point x="554" y="41"/>
      <point x="525" y="79"/>
      <point x="525" y="188" type="curve" smooth="yes" identifier="uDOqesSj95"/>
      <point x="525" y="301"/>
      <point x="552" y="335"/>
      <point x="602" y="335" type="curve" smooth="yes"/>
      <point x="650" y="335"/>
      <point x="678" y="303"/>
    </contour>
    <contour>
      <point x="740" y="188" type="curve" smooth="yes" identifier="iSLNhZDlyr"/>
      <point x="740" y="341"/>
      <point x="677" y="381"/>
      <point x="602" y="381" type="curve" smooth="yes"/>
      <point x="524" y="381"/>
      <point x="464" y="341"/>
      <point x="464" y="188" type="curve" smooth="yes" identifier="Lf22wRXMGA"/>
      <point x="464" y="42"/>
      <point x="525" y="-4"/>
      <point x="600" y="-4" type="curve" smooth="yes"/>
      <point x="676" y="-4"/>
      <point x="740" y="43"/>
    </contour>
  </outline>
</glyph>
<glyph name="ampersand" format="2">
  <advance width="573"/>
  <unicode hex="0026"/>
  <outline>
    <contour>
      <point x="563" y="0" type="curve"/>
      <point x="563" y="61" type="line"/>
      <point x="548" y="57"/>
      <point x="533" y="56"/>
      <point x="518" y="56" type="curve" smooth="yes"/>
      <point x="471" y="56"/>
      <point x="429" y="82"/>
      <point x="392" y="120" type="curve" smooth="yes"/>
      <point x="335" y="179"/>
      <point x="272" y="260"/>
      <point x="229" y="348" type="curve" smooth="yes"/>
      <point x="204" y="400"/>
      <point x="192" y="434"/>
      <point x="192" y="475" type="curve" smooth="yes"/>
      <point x="192" y="529"/>
      <point x="224" y="560"/>
      <point x="277" y="560" type="curve" smooth="yes"/>
      <point x="327" y="560"/>
      <point x="360" y="532"/>
      <point x="360" y="489" type="curve" smooth="yes"/>
      <point x="360" y="432"/>
      <point x="316" y="398"/>
      <point x="191" y="359" type="curve"/>
      <point x="216" y="309" type="line"/>
      <point x="365" y="357"/>
      <point x="426" y="410"/>
      <point x="426" y="489" type="curve" smooth="yes"/>
      <point x="426" y="565"/>
      <point x="369" y="612"/>
      <point x="278" y="612" type="curve" smooth="yes"/>
      <point x="186" y="612"/>
      <point x="124" y="558"/>
      <point x="124" y="475" type="curve" smooth="yes"/>
      <point x="124" y="430"/>
      <point x="138" y="389"/>
      <point x="171" y="323" type="curve" smooth="yes"/>
      <point x="213" y="239"/>
      <point x="281" y="137"/>
      <point x="345" y="74" type="curve" smooth="yes"/>
      <point x="397" y="21"/>
      <point x="440" y="-5"/>
      <point x="512" y="-5" type="curve" smooth="yes"/>
      <point x="522" y="-5"/>
      <point x="543" y="-4"/>
    </contour>
    <contour>
      <point x="432" y="320" type="line"/>
      <point x="433" y="190"/>
      <point x="360" y="49"/>
      <point x="210" y="49" type="curve" smooth="yes"/>
      <point x="125" y="49"/>
      <point x="82" y="91"/>
      <point x="82" y="162" type="curve" smooth="yes"/>
      <point x="82" y="230"/>
      <point x="124" y="276"/>
      <point x="214" y="305" type="curve"/>
      <point x="188" y="358" type="line"/>
      <point x="71" y="320"/>
      <point x="10" y="252"/>
      <point x="10" y="158" type="curve" smooth="yes"/>
      <point x="10" y="51"/>
      <point x="80" y="-10"/>
      <point x="203" y="-10" type="curve" smooth="yes"/>
      <point x="371" y="-10"/>
      <point x="501" y="145"/>
      <point x="500" y="323" type="curve"/>
    </contour>
  </outline>
</glyph>
<glyph name="quotesingle" format="2">
  <advance width="95"/>
  <unicode hex="0027"/>
  <outline>
    <contour>
      <point x="78" y="471" type="line"/>
      <point x="85" y="675" type="line"/>
      <point x="10" y="675" type="line"/>
      <point x="17" y="471" type="line"/>
    </contour>
  </outline>
</glyph>
<glyph name="parenleft" format="2">
  <advance width="256"/>
  <unicode hex="0028"/>
  <outline>
    <contour>
      <point x="246" y="-200" type="line"/>
      <point x="135" y="-69"/>
      <point x="84" y="69"/>
      <point x="84" y="243" type="curve" smooth="yes"/>
      <point x="84" y="421"/>
      <point x="132" y="551"/>
      <point x="246" y="685" type="curve"/>
      <point x="168" y="685" type="line"/>
      <point x="59" y="557"/>
      <point x="10" y="422"/>
      <point x="10" y="240" type="curve" smooth="yes"/>
      <point x="10" y="68"/>
      <point x="66" y="-87"/>
      <point x="167" y="-200" type="curve"/>
    </contour>
  </outline>
</glyph>
<glyph name="parenright" format="2">
  <advance width="256"/>
  <unicode hex="0029"/>
  <outline>
    <contour>
      <point x="10" y="-200" type="curve"/>
      <point x="89" y="-200" type="line"/>
      <point x="190" y="-87"/>
      <point x="246" y="68"/>
      <point x="246" y="240" type="curve" smooth="yes"/>
      <point x="246" y="422"/>
      <point x="197" y="557"/>
      <point x="88" y="685" type="curve"/>
      <point x="10" y="685" type="line"/>
      <point x="124" y="551"/>
      <point x="172" y="421"/>
      <point x="172" y="243" type="curve" smooth="yes"/>
      <point x="172" y="69"/>
      <point x="121" y="-69"/>
    </contour>
  </outline>
</glyph>
<glyph name="asterisk" format="2">
  <advance width="336"/>
  <unicode hex="002A"/>
  <outline>
    <contour>
      <point x="192" y="545" type="line"/>
      <point x="195" y="685" type="line" identifier="ObESNQDXnn"/>
      <point x="142" y="685" type="line" identifier="tld0Fzb48f"/>
      <point x="145" y="543" type="line"/>
      <point x="158" y="550" type="line"/>
      <point x="28" y="603" type="line" identifier="C6LzypZL0H"/>
      <point x="10" y="549" type="line" identifier="012Pb8FdcB"/>
      <point x="145" y="511" type="line"/>
      <point x="139" y="522" type="line"/>
      <point x="51" y="407" type="line" identifier="nvC1Z1FTXT"/>
      <point x="98" y="377" type="line"/>
      <point x="177" y="503" type="line"/>
      <point x="161" y="503" type="line"/>
      <point x="235" y="376" type="line"/>
      <point x="282" y="406" type="line" identifier="pyrPLTtqwf"/>
      <point x="196" y="522" type="line"/>
      <point x="190" y="511" type="line"/>
      <point x="326" y="549" type="line" identifier="Yiehyk2Xwd"/>
      <point x="308" y="602" type="line" identifier="8Wfjk58h5n"/>
      <point x="178" y="550" type="line"/>
    </contour>
  </outline>
</glyph>
<glyph name="plus" format="2">
  <advance width="454"/>
  <unicode hex="002B"/>
  <outline>
    <contour>
      <point x="10" y="264" type="line"/>
      <point x="444" y="264" type="line"/>
      <point x="444" y="322" type="line"/>
      <point x="10" y="322" type="line"/>
    </contour>
    <contour>
      <point x="257" y="79" type="line"/>
      <point x="257" y="508" type="line"/>
      <point x="198" y="508" type="line"/>
      <point x="198" y="79" type="line"/>
    </contour>
  </outline>
</glyph>
<glyph name="comma" format="2">
  <advance width="109"/>
  <unicode hex="002C"/>
  <outline>
    <contour>
      <point x="99" y="92" type="line"/>
      <point x="10" y="92" type="line"/>
      <point x="10" y="0" type="line"/>
      <point x="62" y="0" type="line"/>
      <point x="40" y="11" type="line"/>
      <point x="42" y="-32"/>
      <point x="28" y="-72"/>
      <point x="-1" y="-114" type="curve"/>
      <point x="-1" y="-116" type="line"/>
      <point x="60" y="-116" type="line"/>
      <point x="86" y="-79"/>
      <point x="99" y="-45"/>
      <point x="99" y="16" type="curve" smooth="yes"/>
    </contour>
  </outline>
</glyph>
<glyph name="hyphen" format="2">
  <advance width="470"/>
  <unicode hex="002D"/>
  <outline>
    <contour>
      <point x="92" y="204" type="line"/>
      <point x="378" y="204" type="line"/>
      <point x="378" y="265" type="line"/>
      <point x="92" y="265" type="line"/>
    </contour>
  </outline>
</glyph>
<glyph name="period" format="2">
  <advance width="280"/>
  <unicode hex="002E"/>
  <outline>
    <contour>
      <point x="96" y="0" type="line"/>
      <point x="185" y="0" type="line"/>
      <point x="185" y="92" type="line"/>
      <point x="96" y="92" type="line"/>
    </contour>
  </outline>
</glyph>
<glyph name="colon" format="2">
  <advance width="280"/>
  <unicode hex="003A"/>
  <outline>
    <contour>
      <point x="96" y="0" type="line"/>
      <point x="185" y="0" type="line"/>
      <point x="185" y="92" type="line"/>
      <point x="96" y="92" type="line"/>
    </contour>
    <contour>
      <point x="96" y="373" type="line"/>
      <point x="185" y="373" type="line"/>
      <point x="185" y="465" type="line"/>
      <point x="96" y="465" type="line"/>
    </contour>
  </outline>
</glyph>
<glyph name="semicolon" format="2">
  <advance width="109"/>
  <unicode hex="003B"/>
  <outline>
    <contour>
      <point x="10" y="373" type="line"/>
      <point x="99" y="373" type="line"/>
      <point x="99" y="465" type="line"/>
      <point x="10" y="465" type="line"/>
    </contour>
    <contour>
      <point x="99" y="92" type="line"/>
      <point x="10" y="92" type="line"/>
      <point x="10" y="0" type="line"/>
      <point x="62" y="0" type="line"/>
      <point x="40" y="16" type="line"/>
      <point x="42" y="-29"/>
      <point x="29" y="-71"/>
      <point x="-1" y="-114" type="curve"/>
      <point x="-1" y="-116" type="line"/>
      <point x="60" y="-116" type="line"/>
      <point x="87" y="-78"/>
      <point x="99" y="-42"/>
      <point x="99" y="21" type="curve" smooth="yes"/>
    </contour>
  </outline>
</glyph>
<glyph name="less" format="2">
  <advance width="534"/>
  <unicode hex="003C"/>
  <outline>
    <contour>
      <point x="54" y="249" type="line"/>
      <point x="488" y="68" type="line"/>
      <point x="488" y="130" type="line"/>
      <point x="111" y="290" type="line"/>
      <point x="488" y="449" type="line"/>
      <point x="488" y="512" type="line"/>
      <point x="54" y="331" type="line"/>
    </contour>
  </outline>
</glyph>
<glyph name="equal" format="2">
  <advance width="454"/>
  <unicode hex="003D"/>
  <outline>
    <contour>
      <point x="10" y="151" type="line"/>
      <point x="444" y="151" type="line"/>
      <point x="444" y="211" type="line"/>
      <point x="10" y="211" type="line"/>
    </contour>
    <contour>
      <point x="10" y="368" type="line"/>
      <point x="444" y="368" type="line"/>
      <point x="444" y="429" type="line"/>
      <point x="10" y="429" type="line"/>
    </contour>
  </outline>
</glyph>
<glyph name="greater" format="2">
  <advance width="454"/>
  <unicode hex="003E"/>
  <outline>
    <contour>
      <point x="10" y="68" type="line"/>
      <point x="444" y="249" type="line"/>
      <point x="444" y="331" type="line"/>
      <point x="10" y="512" type="line"/>
      <point x="10" y="449" type="line"/>
      <point x="388" y="290" type="line"/>
      <point x="10" y="130" type="line"/>
    </contour>
  </outline>
</glyph>
<glyph name="question" format="2">
  <advance width="443"/>
  <unicode hex="003F"/>
  <outline>
    <contour>
      <point x="157" y="0" type="line"/>
      <point x="246" y="0" type="line"/>
      <point x="246" y="92" type="line" identifier="lbyVSJNWBS"/>
      <point x="157" y="92" type="line" identifier="Lsa2GVhrqY"/>
    </contour>
    <contour>
      <point x="433" y="500" type="curve" smooth="yes"/>
      <point x="433" y="619"/>
      <point x="356" y="687"/>
      <point x="221" y="687" type="curve" smooth="yes"/>
      <point x="94" y="687"/>
      <point x="10" y="616"/>
      <point x="10" y="508" type="curve"/>
      <point x="84" y="508" type="line"/>
      <point x="84" y="578"/>
      <point x="136" y="623"/>
      <point x="218" y="623" type="curve" smooth="yes"/>
      <point x="302" y="623"/>
      <point x="360" y="574"/>
      <point x="360" y="500" type="curve" smooth="yes"/>
      <point x="360" y="443"/>
      <point x="340" y="409"/>
      <point x="262" y="332" type="curve" smooth="yes"/>
      <point x="192" y="264"/>
      <point x="168" y="220"/>
      <point x="168" y="162" type="curve" identifier="PU0kgIvbFE"/>
      <point x="238" y="162" type="line" identifier="vbJJpv0kod"/>
      <point x="238" y="208"/>
      <point x="257" y="236"/>
      <point x="330" y="309" type="curve" smooth="yes"/>
      <point x="405" y="379"/>
      <point x="433" y="432"/>
    </contour>
  </outline>
</glyph>
<glyph name="at" format="2">
  <advance width="903"/>
  <unicode hex="0040"/>
  <outline>
    <contour>
      <point x="842" y="310" type="curve" smooth="yes" identifier="1Zy9EErPuq"/>
      <point x="842" y="515"/>
      <point x="704" y="636"/>
      <point x="470" y="636" type="curve" smooth="yes" identifier="rBN90zywTs"/>
      <point x="226" y="636"/>
      <point x="62" y="479"/>
      <point x="62" y="246" type="curve" smooth="yes" identifier="ZztHGv3iDH"/>
      <point x="62" y="17"/>
      <point x="211" y="-121"/>
      <point x="457" y="-121" type="curve" smooth="yes" identifier="1QyFkwhsDz"/>
      <point x="539" y="-121"/>
      <point x="648" y="-93"/>
      <point x="710" y="-57" type="curve"/>
      <point x="687" y="-4" type="line"/>
      <point x="621" y="-35"/>
      <point x="525" y="-58"/>
      <point x="461" y="-58" type="curve" smooth="yes" identifier="tMZxrrzarL"/>
      <point x="247" y="-58"/>
      <point x="133" y="49"/>
      <point x="133" y="248" type="curve" smooth="yes" identifier="mN2w8y4WPr"/>
      <point x="133" y="443"/>
      <point x="266" y="572"/>
      <point x="466" y="572" type="curve" smooth="yes" identifier="sMsF0yOd3a"/>
      <point x="661" y="572"/>
      <point x="775" y="473"/>
      <point x="775" y="304" type="curve" smooth="yes" identifier="kiUsk4CUnS"/>
      <point x="775" y="195"/>
      <point x="722" y="114"/>
      <point x="647" y="114" type="curve" smooth="yes" identifier="xc4lStjmc0"/>
      <point x="599" y="114"/>
      <point x="585" y="132"/>
      <point x="606" y="242" type="curve" smooth="yes"/>
      <point x="616" y="298"/>
      <point x="649" y="447"/>
      <point x="649" y="447" type="curve"/>
      <point x="582" y="449" type="line"/>
      <point x="563" y="360" type="line"/>
      <point x="587" y="359" type="line"/>
      <point x="576" y="420"/>
      <point x="527" y="456"/>
      <point x="454" y="457" type="curve" smooth="yes" identifier="7m6DPJUv6Z"/>
      <point x="334" y="459"/>
      <point x="251" y="364"/>
      <point x="251" y="225" type="curve" smooth="yes" identifier="6zYkUITGEo"/>
      <point x="251" y="116"/>
      <point x="302" y="58"/>
      <point x="398" y="58" type="curve" smooth="yes" identifier="41CVk8Y8eX"/>
      <point x="473" y="58"/>
      <point x="525" y="98"/>
      <point x="553" y="174" type="curve"/>
      <point x="531" y="178" type="line"/>
      <point x="517" y="98"/>
      <point x="561" y="54"/>
      <point x="636" y="54" type="curve" smooth="yes" identifier="qyFZV99lCc"/>
      <point x="758" y="54"/>
      <point x="842" y="160"/>
    </contour>
    <contour>
      <point x="536" y="232" type="curve" smooth="yes"/>
      <point x="517" y="155"/>
      <point x="472" y="114"/>
      <point x="409" y="114" type="curve" smooth="yes" identifier="fqJF68K3bN"/>
      <point x="356" y="114"/>
      <point x="326" y="155"/>
      <point x="326" y="226" type="curve" smooth="yes" identifier="RwbXiD7mr6"/>
      <point x="326" y="336"/>
      <point x="374" y="401"/>
      <point x="454" y="401" type="curve" smooth="yes" identifier="lePZkhqg1f"/>
      <point x="526" y="401"/>
      <point x="559" y="329"/>
    </contour>
  </outline>
</glyph>
<glyph name="A" format="2">
  <advance width="556"/>
  <unicode hex="0041"/>
  <anchor x="274.0" y="655" name="top"/>
  <anchor x="267.0" y="-42" name="bottom"/>
  <outline>
    <contour>
      <point x="109" y="182" type="line"/>
      <point x="130" y="237" type="line"/>
      <point x="430" y="237" type="line"/>
      <point x="450" y="182" type="line"/>
    </contour>
    <contour>
      <point x="80" y="0" type="line"/>
      <point x="10" y="0" type="line"/>
      <point x="231" y="605" type="line"/>
      <point x="316" y="605" type="line"/>
      <point x="546" y="0" type="line"/>
      <point x="475" y="0" type="line"/>
      <point x="257" y="594" type="line"/>
      <point x="289" y="594" type="line"/>
    </contour>
  </outline>
</glyph>
<glyph name="B" format="2">
  <advance width="429"/>
  <unicode hex="0042"/>
  <anchor x="212" y="523" name="top"/>
  <outline>
    <contour>
      <point x="10" y="0" type="line"/>
      <point x="198" y="0" type="line" smooth="yes"/>
      <point x="340" y="0"/>
      <point x="419" y="61"/>
      <point x="419" y="172" type="curve" smooth="yes"/>
      <point x="419" y="259"/>
      <point x="365" y="315"/>
      <point x="273" y="324" type="curve"/>
      <point x="273" y="323" type="line"/>
      <point x="344" y="338"/>
      <point x="383" y="387"/>
      <point x="383" y="460" type="curve" smooth="yes"/>
      <point x="383" y="557"/>
      <point x="312" y="605"/>
      <point x="170" y="605" type="curve" smooth="yes"/>
      <point x="10" y="605" type="line"/>
    </contour>
    <contour>
      <point x="346" y="182" type="curve" smooth="yes"/>
      <point x="346" y="97"/>
      <point x="297" y="58"/>
      <point x="189" y="58" type="curve" smooth="yes"/>
      <point x="36" y="58" type="line"/>
      <point x="80" y="23" type="line"/>
      <point x="80" y="584" type="line"/>
      <point x="42" y="547" type="line"/>
      <point x="173" y="547" type="line" smooth="yes"/>
      <point x="265" y="547"/>
      <point x="310" y="516"/>
      <point x="310" y="451" type="curve" smooth="yes"/>
      <point x="310" y="381"/>
      <point x="263" y="345"/>
      <point x="175" y="345" type="curve" smooth="yes"/>
      <point x="43" y="345" type="line"/>
      <point x="43" y="288" type="line"/>
      <point x="179" y="288" type="line" smooth="yes"/>
      <point x="293" y="288"/>
      <point x="346" y="254"/>
    </contour>
  </outline>
</glyph>
<glyph name="C" format="2">
  <advance width="660"/>
  <unicode hex="0043"/>
  <anchor x="359" y="0" name="cedilla"/>
  <outline>
    <contour>
      <point x="360" y="-10" type="curve"/>
      <point x="514" y="-10"/>
      <point x="618" y="71"/>
      <point x="618" y="190" type="curve"/>
      <point x="553" y="190" type="line"/>
      <point x="553" y="108"/>
      <point x="474" y="50"/>
      <point x="362" y="50" type="curve" smooth="yes"/>
      <point x="223" y="50"/>
      <point x="135" y="149"/>
      <point x="135" y="305" type="curve" smooth="yes"/>
      <point x="135" y="463"/>
      <point x="219" y="556"/>
      <point x="361" y="556" type="curve" smooth="yes"/>
      <point x="467" y="556"/>
      <point x="546" y="503"/>
      <point x="546" y="432" type="curve"/>
      <point x="614" y="432" type="line"/>
      <point x="614" y="540"/>
      <point x="513" y="615"/>
      <point x="363" y="615" type="curve"/>
      <point x="174" y="615"/>
      <point x="63" y="500"/>
      <point x="63" y="305" type="curve" smooth="yes"/>
      <point x="63" y="110"/>
      <point x="176" y="-10"/>
    </contour>
  </outline>
</glyph>
<glyph name="D" format="2">
  <advance width="544"/>
  <unicode hex="0044"/>
  <anchor x="269" y="523" name="top"/>
  <anchor x="268" y="-38" name="bottom"/>
  <outline>
    <contour>
      <point x="534" y="308" type="curve" smooth="yes"/>
      <point x="534" y="496"/>
      <point x="416" y="605"/>
      <point x="210" y="605" type="curve" smooth="yes"/>
      <point x="10" y="605" type="line"/>
      <point x="10" y="0" type="line"/>
      <point x="235" y="0" type="line" smooth="yes"/>
      <point x="418" y="0"/>
      <point x="534" y="120"/>
    </contour>
    <contour>
      <point x="462" y="308" type="curve" smooth="yes"/>
      <point x="462" y="153"/>
      <point x="374" y="58"/>
      <point x="228" y="58" type="curve" smooth="yes"/>
      <point x="36" y="58" type="line"/>
      <point x="80" y="22" type="line"/>
      <point x="80" y="580" type="line"/>
      <point x="40" y="547" type="line"/>
      <point x="209" y="547" type="line" smooth="yes"/>
      <point x="371" y="547"/>
      <point x="462" y="461"/>
    </contour>
  </outline>
</glyph>
<glyph name="E" format="2">
  <advance width="397"/>
  <unicode hex="0045"/>
  <anchor x="193" y="655" name="top"/>
  <outline>
    <contour>
      <point x="80" y="577" type="line"/>
      <point x="49" y="546" type="line"/>
      <point x="381" y="546" type="line"/>
      <point x="381" y="605" type="line"/>
      <point x="10" y="605" type="line"/>
      <point x="10" y="1" type="line"/>
      <point x="387" y="1" type="line"/>
      <point x="387" y="60" type="line"/>
      <point x="38" y="60" type="line"/>
      <point x="80" y="16" type="line"/>
    </contour>
    <contour>
      <point x="41" y="281" type="line"/>
      <point x="361" y="281" type="line"/>
      <point x="361" y="340" type="line"/>
      <point x="41" y="340" type="line"/>
    </contour>
  </outline>
</glyph>
<glyph name="F" format="2">
  <advance width="391"/>
  <unicode hex="0046"/>
  <anchor x="195" y="523" name="top"/>
  <outline>
    <contour>
      <point x="46" y="546" type="line"/>
      <point x="381" y="546" type="line" identifier="eIS8fJ8v7D"/>
      <point x="381" y="605" type="line"/>
      <point x="10" y="605" type="line"/>
      <point x="10" y="1" type="line"/>
      <point x="80" y="1" type="line"/>
      <point x="80" y="577" type="line" identifier="6V4VA1aoKD"/>
    </contour>
    <contour>
      <point x="41" y="340" type="line"/>
      <point x="41" y="281" type="line"/>
      <point x="361" y="281" type="line"/>
      <point x="361" y="340" type="line"/>
    </contour>
  </outline>
</glyph>
<glyph name="G" format="2">
  <advance width="598"/>
  <unicode hex="0047"/>
  <anchor x="301" y="523" name="top"/>
  <anchor x="302" y="-38" name="bottom"/>
  <outline>
    <contour>
      <point x="526" y="162" type="line"/>
      <point x="526" y="0" type="line"/>
      <point x="588" y="0" type="line"/>
      <point x="588" y="310" type="line"/>
      <point x="332" y="310" type="line"/>
      <point x="332" y="250" type="line"/>
      <point x="561" y="250" type="line"/>
      <point x="517" y="282" type="line"/>
      <point x="517" y="252" type="line" smooth="yes"/>
      <point x="517" y="133"/>
      <point x="433" y="49"/>
      <point x="309" y="49" type="curve" smooth="yes"/>
      <point x="166" y="49"/>
      <point x="82" y="143"/>
      <point x="82" y="305" type="curve" smooth="yes"/>
      <point x="82" y="465"/>
      <point x="166" y="556"/>
      <point x="315" y="556" type="curve" smooth="yes"/>
      <point x="425" y="556"/>
      <point x="507" y="502"/>
      <point x="507" y="432" type="curve"/>
      <point x="575" y="432" type="line"/>
      <point x="575" y="543"/>
      <point x="473" y="615"/>
      <point x="313" y="615" type="curve" smooth="yes"/>
      <point x="122" y="615"/>
      <point x="10" y="499"/>
      <point x="10" y="305" type="curve" smooth="yes"/>
      <point x="10" y="104"/>
      <point x="115" y="-10"/>
      <point x="300" y="-10" type="curve" smooth="yes"/>
      <point x="434" y="-10"/>
      <point x="532" y="59"/>
      <point x="544" y="163" type="curve"/>
    </contour>
  </outline>
</glyph>
<glyph name="H" format="2">
  <advance width="670"/>
  <unicode hex="0048"/>
  <anchor x="348" y="645" name="top"/>
  <anchor x="348" y="-38" name="bottom"/>
  <outline>
    <contour>
      <point x="168" y="605" type="line"/>
      <point x="98" y="605" type="line"/>
      <point x="98" y="0" type="line"/>
      <point x="168" y="0" type="line"/>
    </contour>
    <contour>
      <point x="140" y="346" type="line"/>
      <point x="140" y="285" type="line"/>
      <point x="531" y="285" type="line"/>
      <point x="531" y="346" type="line"/>
    </contour>
    <contour>
      <point x="504" y="0" type="line"/>
      <point x="573" y="0" type="line"/>
      <point x="573" y="605" type="line"/>
      <point x="504" y="605" type="line"/>
    </contour>
  </outline>
</glyph>
<glyph name="I" format="2">
  <advance width="300"/>
  <unicode hex="0049"/>
  <anchor x="150.0" y="655" name="top"/>
  <anchor x="150.0" y="-38" name="bottom"/>
  <outline>
    <contour>
      <point x="115" y="0" type="line"/>
      <point x="185" y="0" type="line"/>
      <point x="185" y="605" type="line"/>
      <point x="115" y="605" type="line"/>
    </contour>
  </outline>
</glyph>
<glyph name="J" format="2">
  <advance width="375"/>
  <unicode hex="004A"/>
  <anchor x="192" y="525" name="top"/>
  <outline>
    <contour>
      <point x="180" y="-10" type="curve" smooth="yes"/>
      <point x="298" y="-10"/>
      <point x="365" y="58"/>
      <point x="365" y="179" type="curve" smooth="yes"/>
      <point x="365" y="605" type="line"/>
      <point x="295" y="605" type="line"/>
      <point x="295" y="176" type="line" smooth="yes"/>
      <point x="295" y="90"/>
      <point x="260" y="49"/>
      <point x="186" y="49" type="curve" smooth="yes"/>
      <point x="115" y="49"/>
      <point x="78" y="86"/>
      <point x="78" y="159" type="curve"/>
      <point x="10" y="159" type="line"/>
      <point x="10" y="47"/>
      <point x="67" y="-10"/>
    </contour>
  </outline>
</glyph>
<glyph name="K" format="2">
  <advance width="490"/>
  <unicode hex="004B"/>
  <anchor x="243" y="523" name="top"/>
  <anchor x="244" y="-38" name="bottom"/>
  <outline>
    <contour>
      <point x="80" y="605" type="line"/>
      <point x="10" y="605" type="line"/>
      <point x="10" y="0" type="line"/>
      <point x="80" y="0" type="line"/>
    </contour>
    <contour>
      <point x="448" y="605" type="line"/>
      <point x="360" y="605" type="line"/>
      <point x="52" y="264" type="line"/>
      <point x="52" y="185" type="line"/>
      <point x="182" y="321" type="line"/>
      <point x="187" y="321" type="line"/>
    </contour>
    <contour>
      <point x="147" y="323" type="line"/>
      <point x="393" y="0" type="line"/>
      <point x="480" y="0" type="line"/>
      <point x="194" y="364" type="line"/>
    </contour>
  </outline>
</glyph>
<glyph name="L" format="2">
  <advance width="527"/>
  <unicode hex="004C"/>
  <anchor x="287" y="523" name="top"/>
  <anchor x="289" y="-38" name="bottom"/>
  <outline>
    <contour>
      <point x="102" y="0" type="line"/>
      <point x="476" y="0" type="line"/>
      <point x="476" y="59" type="line" identifier="tsQhXhnaLc"/>
      <point x="133" y="59" type="line"/>
      <point x="172" y="20" type="line" identifier="FKLbT0kEEc"/>
      <point x="172" y="605" type="line"/>
      <point x="102" y="605" type="line"/>
    </contour>
  </outline>
</glyph>
<glyph name="M" format="2">
  <advance width="625"/>
  <unicode hex="004D"/>
  <anchor x="312" y="523" name="top"/>
  <outline>
    <contour>
      <point x="10" y="0" type="line"/>
      <point x="71" y="0" type="line"/>
      <point x="71" y="583" type="line"/>
      <point x="49" y="583" type="line"/>
      <point x="289" y="0" type="line"/>
      <point x="348" y="0" type="line"/>
      <point x="574" y="588" type="line"/>
      <point x="550" y="588" type="line"/>
      <point x="550" y="0" type="line"/>
      <point x="615" y="0" type="line"/>
      <point x="615" y="605" type="line"/>
      <point x="519" y="605" type="line"/>
      <point x="299" y="34" type="line"/>
      <point x="339" y="34" type="line"/>
      <point x="97" y="605" type="line"/>
      <point x="10" y="605" type="line"/>
    </contour>
  </outline>
</glyph>
<glyph name="N" format="2">
  <advance width="685"/>
  <unicode hex="004E"/>
  <outline>
    <contour>
      <point x="100" y="0" type="line"/>
      <point x="163" y="0" type="line"/>
      <point x="163" y="575" type="line"/>
      <point x="134" y="569" type="line"/>
      <point x="496" y="0" type="line"/>
      <point x="585" y="0" type="line"/>
      <point x="585" y="605" type="line"/>
      <point x="520" y="605" type="line"/>
      <point x="520" y="20" type="line"/>
      <point x="555" y="27" type="line"/>
      <point x="183" y="605" type="line"/>
      <point x="100" y="605" type="line"/>
    </contour>
  </outline>
</glyph>
<glyph name="O" format="2">
  <advance width="710"/>
  <unicode hex="004F"/>
  <anchor x="356.0" y="655" name="top"/>
  <anchor x="365.0" y="-37" name="bottom"/>
  <outline>
    <contour>
      <point x="579" y="305" type="curve" smooth="yes"/>
      <point x="579" y="142"/>
      <point x="498" y="49"/>
      <point x="354" y="49" type="curve" smooth="yes"/>
      <point x="217" y="49"/>
      <point x="131" y="148"/>
      <point x="131" y="305" type="curve" smooth="yes"/>
      <point x="131" y="463"/>
      <point x="213" y="554"/>
      <point x="356" y="554" type="curve" smooth="yes"/>
      <point x="496" y="554"/>
      <point x="579" y="461"/>
    </contour>
    <contour>
      <point x="652" y="305" type="curve" smooth="yes"/>
      <point x="652" y="497"/>
      <point x="540" y="615"/>
      <point x="356" y="615" type="curve" smooth="yes"/>
      <point x="169" y="615"/>
      <point x="58" y="499"/>
      <point x="58" y="305" type="curve" smooth="yes"/>
      <point x="58" y="111"/>
      <point x="171" y="-10"/>
      <point x="354" y="-10" type="curve" smooth="yes"/>
      <point x="538" y="-10"/>
      <point x="652" y="111"/>
    </contour>
  </outline>
</glyph>
<glyph name="P" format="2">
  <advance width="440"/>
  <unicode hex="0050"/>
  <anchor x="219" y="523" name="top"/>
  <outline>
    <contour>
      <point x="47" y="240" type="line"/>
      <point x="223" y="240" type="line" smooth="yes"/>
      <point x="350" y="240"/>
      <point x="430" y="311"/>
      <point x="430" y="425" type="curve" smooth="yes"/>
      <point x="430" y="539"/>
      <point x="352" y="605"/>
      <point x="217" y="605" type="curve" smooth="yes"/>
      <point x="10" y="605" type="line"/>
      <point x="10" y="0" type="line"/>
      <point x="80" y="0" type="line"/>
      <point x="80" y="579" type="line"/>
      <point x="49" y="547" type="line"/>
      <point x="209" y="547" type="line" smooth="yes"/>
      <point x="306" y="547"/>
      <point x="358" y="504"/>
      <point x="358" y="424" type="curve" smooth="yes"/>
      <point x="358" y="339"/>
      <point x="309" y="297"/>
      <point x="212" y="297" type="curve" smooth="yes"/>
      <point x="47" y="297" type="line"/>
    </contour>
  </outline>
</glyph>
<glyph name="Q" format="2">
  <advance width="614"/>
  <unicode hex="0051"/>
  <outline>
    <contour>
      <point x="342" y="16" type="line"/>
      <point x="267" y="16" type="line"/>
      <point x="267" y="-31" type="line" smooth="yes"/>
      <point x="267" y="-117"/>
      <point x="325" y="-163"/>
      <point x="433" y="-163" type="curve" smooth="yes"/>
      <point x="523" y="-163" type="line"/>
      <point x="523" y="-95" type="line"/>
      <point x="447" y="-95" type="line" smooth="yes"/>
      <point x="369" y="-95"/>
      <point x="342" y="-75"/>
      <point x="342" y="-22" type="curve" smooth="yes"/>
    </contour>
    <contour>
      <point x="531" y="305" type="curve" smooth="yes"/>
      <point x="531" y="142"/>
      <point x="450" y="49"/>
      <point x="306" y="49" type="curve" smooth="yes"/>
      <point x="169" y="49"/>
      <point x="83" y="148"/>
      <point x="83" y="305" type="curve" smooth="yes"/>
      <point x="83" y="463"/>
      <point x="165" y="554"/>
      <point x="308" y="554" type="curve" smooth="yes"/>
      <point x="448" y="554"/>
      <point x="531" y="461"/>
    </contour>
    <contour>
      <point x="604" y="305" type="curve" smooth="yes"/>
      <point x="604" y="497"/>
      <point x="492" y="615"/>
      <point x="308" y="615" type="curve" smooth="yes"/>
      <point x="121" y="615"/>
      <point x="10" y="499"/>
      <point x="10" y="305" type="curve" smooth="yes"/>
      <point x="10" y="111"/>
      <point x="123" y="-10"/>
      <point x="306" y="-10" type="curve" smooth="yes"/>
      <point x="490" y="-10"/>
      <point x="604" y="111"/>
    </contour>
  </outline>
</glyph>
<glyph name="R" format="2">
  <advance width="585"/>
  <unicode hex="0052"/>
  <outline>
    <contour>
      <point x="287" y="276" type="line"/>
      <point x="461" y="0" type="line"/>
      <point x="544" y="0" type="line"/>
      <point x="357" y="276" type="line"/>
    </contour>
    <contour>
      <point x="139" y="240" type="line"/>
      <point x="315" y="240" type="line" smooth="yes"/>
      <point x="442" y="240"/>
      <point x="522" y="311"/>
      <point x="522" y="425" type="curve" smooth="yes"/>
      <point x="522" y="539"/>
      <point x="444" y="605"/>
      <point x="309" y="605" type="curve" smooth="yes"/>
      <point x="102" y="605" type="line"/>
      <point x="102" y="0" type="line"/>
      <point x="172" y="0" type="line"/>
      <point x="172" y="579" type="line"/>
      <point x="141" y="547" type="line"/>
      <point x="301" y="547" type="line" smooth="yes"/>
      <point x="398" y="547"/>
      <point x="450" y="504"/>
      <point x="450" y="424" type="curve" smooth="yes"/>
      <point x="450" y="339"/>
      <point x="401" y="297"/>
      <point x="304" y="297" type="curve" smooth="yes"/>
      <point x="139" y="297" type="line"/>
    </contour>
  </outline>
</glyph>
<glyph name="S" format="2">
  <advance width="495"/>
  <unicode hex="0053"/>
  <anchor x="249" y="655" name="top"/>
  <anchor x="248" y="-38" name="bottom"/>
  <outline>
    <contour>
      <point x="485" y="167" type="curve" smooth="yes"/>
      <point x="485" y="265"/>
      <point x="437" y="305"/>
      <point x="269" y="345" type="curve" smooth="yes"/>
      <point x="141" y="376"/>
      <point x="111" y="397"/>
      <point x="111" y="461" type="curve" smooth="yes"/>
      <point x="111" y="525"/>
      <point x="162" y="561"/>
      <point x="254" y="561" type="curve" smooth="yes"/>
      <point x="352" y="561"/>
      <point x="401" y="528"/>
      <point x="401" y="465" type="curve"/>
      <point x="471" y="465" type="line"/>
      <point x="471" y="558"/>
      <point x="392" y="615"/>
      <point x="256" y="615" type="curve" smooth="yes"/>
      <point x="121" y="615"/>
      <point x="39" y="556"/>
      <point x="39" y="455" type="curve" smooth="yes"/>
      <point x="39" y="365"/>
      <point x="90" y="321"/>
      <point x="237" y="285" type="curve" smooth="yes"/>
      <point x="388" y="248"/>
      <point x="417" y="229"/>
      <point x="417" y="164" type="curve" smooth="yes"/>
      <point x="417" y="85"/>
      <point x="361" y="46"/>
      <point x="246" y="46" type="curve" smooth="yes"/>
      <point x="140" y="46"/>
      <point x="80" y="86"/>
      <point x="80" y="159" type="curve"/>
      <point x="10" y="159" type="line"/>
      <point x="10" y="51"/>
      <point x="94" y="-10"/>
      <point x="243" y="-10" type="curve" smooth="yes"/>
      <point x="402" y="-10"/>
      <point x="485" y="59"/>
    </contour>
  </outline>
</glyph>
<glyph name="T" format="2">
  <advance width="494"/>
  <unicode hex="0054"/>
  <anchor x="247.0" y="523" name="top"/>
  <anchor x="247.0" y="-38" name="bottom"/>
  <outline>
    <contour>
      <point x="212" y="571" type="line"/>
      <point x="212" y="0" type="line"/>
      <point x="282" y="0" type="line"/>
      <point x="282" y="571" type="line"/>
    </contour>
    <contour>
      <point x="484" y="546" type="line"/>
      <point x="484" y="605" type="line"/>
      <point x="10" y="605" type="line"/>
      <point x="10" y="546" type="line"/>
    </contour>
  </outline>
</glyph>
<glyph name="U" format="2">
  <advance width="485"/>
  <unicode hex="0055"/>
  <anchor x="242" y="655" name="top"/>
  <anchor x="251" y="-37" name="bottom"/>
  <outline>
    <contour>
      <point x="242" y="-10" type="curve" smooth="yes" identifier="Fr8rCMn9F2"/>
      <point x="382" y="-10"/>
      <point x="475" y="68"/>
      <point x="475" y="229" type="curve" smooth="yes"/>
      <point x="475" y="605" type="line"/>
      <point x="406" y="605" type="line"/>
      <point x="406" y="234" type="line" smooth="yes" identifier="DBWyk7hlMd"/>
      <point x="406" y="109"/>
      <point x="344" y="49"/>
      <point x="244" y="49" type="curve" smooth="yes" identifier="sAPt1g8260"/>
      <point x="143" y="49"/>
      <point x="80" y="111"/>
      <point x="80" y="233" type="curve" smooth="yes" identifier="XkGQe7Plyb"/>
      <point x="80" y="605" type="line"/>
      <point x="10" y="605" type="line"/>
      <point x="10" y="222" type="line" smooth="yes"/>
      <point x="10" y="64"/>
      <point x="111" y="-10"/>
    </contour>
  </outline>
</glyph>
<glyph name="V" format="2">
  <advance width="552"/>
  <unicode hex="0056"/>
  <anchor x="276.0" y="523" name="top"/>
  <outline>
    <contour>
      <point x="245" y="0" type="line"/>
      <point x="319" y="0" type="line"/>
      <point x="542" y="605" type="line"/>
      <point x="465" y="605" type="line"/>
      <point x="267" y="14" type="line"/>
      <point x="303" y="14" type="line"/>
      <point x="84" y="605" type="line"/>
      <point x="10" y="605" type="line"/>
    </contour>
  </outline>
</glyph>
<glyph name="W" format="2">
  <advance width="952"/>
  <unicode hex="0057"/>
  <outline>
    <contour>
      <point x="240" y="0" type="line"/>
      <point x="325" y="0" type="line"/>
      <point x="489" y="570" type="line"/>
      <point x="460" y="570" type="line"/>
      <point x="626" y="0" type="line"/>
      <point x="712" y="0" type="line"/>
      <point x="891" y="605" type="line"/>
      <point x="816" y="605" type="line"/>
      <point x="654" y="14" type="line"/>
      <point x="685" y="14" type="line"/>
      <point x="516" y="605" type="line"/>
      <point x="437" y="605" type="line"/>
      <point x="271" y="17" type="line"/>
      <point x="301" y="17" type="line"/>
      <point x="138" y="605" type="line"/>
      <point x="62" y="605" type="line"/>
    </contour>
  </outline>
</glyph>
<glyph name="X" format="2">
  <advance width="655"/>
  <unicode hex="0058"/>
  <anchor x="329" y="523" name="top"/>
  <outline>
    <contour>
      <point x="349" y="300" type="line"/>
      <point x="360" y="300" type="line"/>
      <point x="583" y="605" type="line"/>
      <point x="504" y="605" type="line"/>
      <point x="307" y="324" type="line"/>
      <point x="299" y="324" type="line"/>
      <point x="55" y="0" type="line"/>
      <point x="134" y="0" type="line"/>
    </contour>
    <contour>
      <point x="321" y="286" type="line"/>
      <point x="522" y="0" type="line"/>
      <point x="601" y="0" type="line"/>
      <point x="365" y="327" type="line"/>
      <point x="356" y="327" type="line"/>
      <point x="154" y="605" type="line"/>
      <point x="74" y="605" type="line"/>
      <point x="310" y="286" type="line"/>
    </contour>
  </outline>
</glyph>
<glyph name="Y" format="2">
  <advance width="520"/>
  <unicode hex="0059"/>
  <anchor x="259" y="655" name="top"/>
  <outline>
    <contour>
      <point x="294" y="252" type="line"/>
      <point x="510" y="605" type="line"/>
      <point x="431" y="605" type="line"/>
      <point x="245" y="285" type="line"/>
      <point x="276" y="285" type="line"/>
      <point x="89" y="605" type="line"/>
      <point x="10" y="605" type="line"/>
      <point x="224" y="252" type="line"/>
      <point x="224" y="0" type="line"/>
      <point x="294" y="0" type="line"/>
    </contour>
  </outline>
</glyph>
<glyph name="Z" format="2">
  <advance width="478"/>
  <unicode hex="005A"/>
  <anchor x="225.0" y="655" name="top"/>
  <outline>
    <contour>
      <point x="10" y="0" type="line"/>
      <point x="468" y="0" type="line"/>
      <point x="468" y="59" type="line"/>
      <point x="45" y="59" type="line"/>
      <point x="61" y="18" type="line"/>
      <point x="449" y="553" type="line"/>
      <point x="449" y="605" type="line"/>
      <point x="31" y="605" type="line"/>
      <point x="31" y="546" type="line"/>
      <point x="404" y="546" type="line"/>
      <point x="394" y="585" type="line"/>
      <point x="10" y="54" type="line"/>
    </contour>
  </outline>
</glyph>
<glyph name="bracketleft" format="2">
  <advance width="220"/>
  <unicode hex="005B"/>
  <outline>
    <contour>
      <point x="10" y="-200" type="line"/>
      <point x="210" y="-200" type="line"/>
      <point x="210" y="-149" type="line"/>
      <point x="82" y="-149" type="line"/>
      <point x="82" y="634" type="line"/>
      <point x="210" y="634" type="line"/>
      <point x="210" y="685" type="line"/>
      <point x="10" y="685" type="line"/>
    </contour>
  </outline>
</glyph>
<glyph name="backslash" format="2">
  <advance width="414"/>
  <unicode hex="005C"/>
  <outline>
    <contour>
      <point x="404" y="-190" type="line"/>
      <point x="83" y="675" type="line"/>
      <point x="10" y="675" type="line"/>
      <point x="331" y="-190" type="line"/>
    </contour>
  </outline>
</glyph>
<glyph name="bracketright" format="2">
  <advance width="370"/>
  <unicode hex="005D"/>
  <outline>
    <contour>
      <point x="270" y="-200" type="line"/>
      <point x="270" y="685" type="line"/>
      <point x="70" y="685" type="line"/>
      <point x="70" y="634" type="line"/>
      <point x="198" y="634" type="line"/>
      <point x="198" y="-149" type="line"/>
      <point x="70" y="-149" type="line"/>
      <point x="70" y="-200" type="line"/>
    </contour>
  </outline>
</glyph>
<glyph name="asciicircum" format="2">
  <advance width="634"/>
  <unicode hex="005E"/>
  <outline>
    <contour>
      <point x="451" y="144" type="line"/>
      <point x="519" y="144" type="line"/>
      <point x="359" y="453" type="line"/>
      <point x="277" y="453" type="line"/>
      <point x="116" y="144" type="line"/>
      <point x="184" y="144" type="line"/>
      <point x="330" y="437" type="line"/>
      <point x="304" y="437" type="line"/>
    </contour>
  </outline>
</glyph>
<glyph name="underscore" format="2">
  <advance width="607"/>
  <unicode hex="005F"/>
  <outline>
    <contour>
      <point x="10" y="-61" type="line"/>
      <point x="597" y="-61" type="line"/>
      <point x="597" y="0" type="line"/>
      <point x="10" y="0" type="line"/>
    </contour>
  </outline>
</glyph>
<glyph name="grave" format="2">
  <advance width="219"/>
  <unicode hex="0060"/>
  <outline>
    <contour>
      <point x="147" y="522" type="line"/>
      <point x="209" y="522" type="line"/>
      <point x="209" y="523" type="line"/>
      <point x="109" y="655" type="line"/>
      <point x="10" y="655" type="line"/>
      <point x="10" y="654" type="line"/>
    </contour>
  </outline>
</glyph>
<glyph name="a" format="2">
  <advance width="395"/>
  <unicode hex="0061"/>
  <anchor x="405.0" y="0" name="bottom"/>
  <anchor x="204.0" y="525" name="top"/>
  <outline>
    <contour>
      <point x="385" y="0" type="line"/>
      <point x="385" y="313" type="line" smooth="yes"/>
      <point x="385" y="419"/>
      <point x="323" y="475"/>
      <point x="205" y="475" type="curve" smooth="yes"/>
      <point x="95" y="475"/>
      <point x="31" y="425"/>
      <point x="31" y="341" type="curve"/>
      <point x="101" y="341" type="line"/>
      <point x="101" y="394"/>
      <point x="138" y="423"/>
      <point x="205" y="423" type="curve" smooth="yes"/>
      <point x="279" y="423"/>
      <point x="315" y="389"/>
      <point x="315" y="317" type="curve" smooth="yes"/>
      <point x="315" y="200" type="line" smooth="yes"/>
      <point x="315" y="103"/>
      <point x="260" y="42"/>
      <point x="175" y="42" type="curve" smooth="yes"/>
      <point x="116" y="42"/>
      <point x="78" y="74"/>
      <point x="78" y="123" type="curve" smooth="yes"/>
      <point x="78" y="186"/>
      <point x="124" y="215"/>
      <point x="222" y="215" type="curve" smooth="yes"/>
      <point x="332" y="215" type="line"/>
      <point x="332" y="264" type="line"/>
      <point x="222" y="264" type="line" smooth="yes"/>
      <point x="75" y="264"/>
      <point x="9" y="218"/>
      <point x="10" y="119" type="curve" smooth="yes"/>
      <point x="11" y="41"/>
      <point x="70" y="-10"/>
      <point x="158" y="-10" type="curve" smooth="yes"/>
      <point x="256" y="-10"/>
      <point x="313" y="37"/>
      <point x="326" y="127" type="curve"/>
      <point x="315" y="127" type="line"/>
      <point x="315" y="0" type="line"/>
    </contour>
  </outline>
</glyph>
<glyph name="b" format="2">
  <advance width="419"/>
  <unicode hex="0062"/>
  <anchor x="210" y="515" name="top"/>
  <outline>
    <contour>
      <point x="409" y="236" type="curve" smooth="yes"/>
      <point x="409" y="396"/>
      <point x="351" y="475"/>
      <point x="227" y="475" type="curve" smooth="yes"/>
      <point x="140" y="475"/>
      <point x="78" y="428"/>
      <point x="64" y="329" type="curve"/>
      <point x="80" y="329" type="line"/>
      <point x="80" y="675" type="line"/>
      <point x="10" y="675" type="line"/>
      <point x="10" y="0" type="line"/>
      <point x="80" y="0" type="line"/>
      <point x="80" y="127" type="line"/>
      <point x="64" y="127" type="line"/>
      <point x="72" y="25"/>
      <point x="151" y="-10"/>
      <point x="222" y="-10" type="curve" smooth="yes"/>
      <point x="348" y="-10"/>
      <point x="409" y="72"/>
    </contour>
    <contour>
      <point x="337" y="234" type="curve" smooth="yes"/>
      <point x="337" y="94"/>
      <point x="294" y="42"/>
      <point x="212" y="42" type="curve" smooth="yes"/>
      <point x="128" y="42"/>
      <point x="80" y="94"/>
      <point x="80" y="229" type="curve" smooth="yes"/>
      <point x="80" y="368"/>
      <point x="127" y="420"/>
      <point x="215" y="420" type="curve" smooth="yes"/>
      <point x="298" y="420"/>
      <point x="337" y="366"/>
    </contour>
  </outline>
</glyph>
<glyph name="c" format="2">
  <advance width="407"/>
  <unicode hex="0063"/>
  <anchor x="206" y="0" name="cedilla"/>
  <outline>
    <contour>
      <point x="213" y="-10" type="curve" smooth="yes" identifier="kxWHmwlP2n"/>
      <point x="332" y="-10"/>
      <point x="397" y="54"/>
      <point x="397" y="143" type="curve"/>
      <point x="328" y="143" type="line"/>
      <point x="328" y="83"/>
      <point x="289" y="42"/>
      <point x="218" y="42" type="curve" smooth="yes" identifier="aQdxDdtOcM"/>
      <point x="128" y="42"/>
      <point x="82" y="107"/>
      <point x="82" y="235" type="curve" smooth="yes"/>
      <point x="82" y="362"/>
      <point x="127" y="423"/>
      <point x="216" y="423" type="curve" smooth="yes" identifier="YQXLsK3shQ"/>
      <point x="279" y="423"/>
      <point x="322" y="384"/>
      <point x="322" y="331" type="curve"/>
      <point x="392" y="331" type="line"/>
      <point x="392" y="418"/>
      <point x="326" y="475"/>
      <point x="213" y="475" type="curve" smooth="yes" identifier="h9141Ea7nQ"/>
      <point x="84" y="475"/>
      <point x="10" y="386"/>
      <point x="10" y="234" type="curve" smooth="yes"/>
      <point x="10" y="77"/>
      <point x="82" y="-10"/>
    </contour>
  </outline>
</glyph>
<glyph name="d" format="2">
  <advance width="426"/>
  <unicode hex="0064"/>
  <anchor x="211" y="515" name="top"/>
  <anchor x="212" y="-42" name="bottom"/>
  <outline>
    <contour>
      <point x="191" y="-10" type="curve" smooth="yes"/>
      <point x="287" y="-10"/>
      <point x="343" y="36"/>
      <point x="355" y="127" type="curve"/>
      <point x="349" y="127" type="line"/>
      <point x="349" y="0" type="line"/>
      <point x="416" y="0" type="line"/>
      <point x="416" y="675" type="line"/>
      <point x="346" y="675" type="line"/>
      <point x="346" y="328" type="line"/>
      <point x="356" y="328" type="line"/>
      <point x="357" y="415"/>
      <point x="290" y="475"/>
      <point x="191" y="475" type="curve" smooth="yes"/>
      <point x="72" y="475"/>
      <point x="10" y="391"/>
      <point x="10" y="231" type="curve" smooth="yes"/>
      <point x="10" y="70"/>
      <point x="70" y="-10"/>
    </contour>
    <contour>
      <point x="210" y="44" type="curve" smooth="yes"/>
      <point x="124" y="44"/>
      <point x="82" y="107"/>
      <point x="82" y="233" type="curve" smooth="yes"/>
      <point x="82" y="359"/>
      <point x="126" y="422"/>
      <point x="214" y="422" type="curve" smooth="yes"/>
      <point x="302" y="422"/>
      <point x="346" y="361"/>
      <point x="346" y="239" type="curve" smooth="yes"/>
      <point x="346" y="112"/>
      <point x="299" y="44"/>
    </contour>
  </outline>
</glyph>
<glyph name="e" format="2">
  <advance width="539"/>
  <unicode hex="0065"/>
  <outline>
    <contour>
      <point x="283" y="-10" type="curve" smooth="yes"/>
      <point x="399" y="-10"/>
      <point x="466" y="46"/>
      <point x="466" y="117" type="curve"/>
      <point x="401" y="117" type="line"/>
      <point x="401" y="73"/>
      <point x="355" y="45"/>
      <point x="284" y="45" type="curve" smooth="yes"/>
      <point x="179" y="45"/>
      <point x="142" y="118"/>
      <point x="142" y="216" type="curve" smooth="yes"/>
      <point x="142" y="256" type="line" smooth="yes"/>
      <point x="142" y="388"/>
      <point x="208" y="422"/>
      <point x="276" y="422" type="curve" smooth="yes"/>
      <point x="358" y="422"/>
      <point x="399" y="377"/>
      <point x="399" y="278" type="curve" smooth="yes"/>
      <point x="399" y="239" type="line"/>
      <point x="427" y="271" type="line"/>
      <point x="121" y="271" type="line"/>
      <point x="121" y="217" type="line"/>
      <point x="472" y="217" type="line"/>
      <point x="472" y="251" type="line" smooth="yes"/>
      <point x="472" y="372"/>
      <point x="434" y="475"/>
      <point x="278" y="475" type="curve" smooth="yes"/>
      <point x="158" y="475"/>
      <point x="67" y="405"/>
      <point x="67" y="235" type="curve" smooth="yes"/>
      <point x="67" y="76"/>
      <point x="136" y="-10"/>
    </contour>
  </outline>
</glyph>
<glyph name="f" format="2">
  <advance width="302"/>
  <unicode hex="0066"/>
  <anchor x="107" y="515" name="top"/>
  <outline>
    <contour>
      <point x="97" y="0" type="line"/>
      <point x="167" y="0" type="line"/>
      <point x="167" y="582" type="line" smooth="yes"/>
      <point x="167" y="609"/>
      <point x="175" y="625"/>
      <point x="205" y="625" type="curve" smooth="yes"/>
      <point x="292" y="625" type="line"/>
      <point x="292" y="685" type="line"/>
      <point x="198" y="685" type="line" smooth="yes"/>
      <point x="135" y="685"/>
      <point x="97" y="646"/>
      <point x="97" y="584" type="curve" smooth="yes"/>
    </contour>
    <contour>
      <point x="10" y="412" type="line"/>
      <point x="292" y="412" type="line"/>
      <point x="292" y="465" type="line"/>
      <point x="10" y="465" type="line"/>
    </contour>
  </outline>
</glyph>
<glyph name="g" format="2">
  <advance width="419"/>
  <unicode hex="0067"/>
  <anchor x="213" y="525" name="top"/>
  <outline>
    <contour>
      <point x="183" y="-7" type="curve" smooth="yes"/>
      <point x="269" y="-7"/>
      <point x="331" y="44"/>
      <point x="350" y="126" type="curve"/>
      <point x="340" y="126" type="line"/>
      <point x="340" y="-5" type="line" smooth="yes"/>
      <point x="340" y="-100"/>
      <point x="300" y="-146"/>
      <point x="214" y="-146" type="curve" smooth="yes"/>
      <point x="146" y="-146"/>
      <point x="101" y="-118"/>
      <point x="101" y="-77" type="curve"/>
      <point x="32" y="-77" type="line"/>
      <point x="32" y="-154"/>
      <point x="98" y="-200"/>
      <point x="209" y="-200" type="curve" smooth="yes"/>
      <point x="343" y="-200"/>
      <point x="409" y="-134"/>
      <point x="409" y="-3" type="curve" smooth="yes"/>
      <point x="409" y="465" type="line"/>
      <point x="344" y="465" type="line"/>
      <point x="342" y="329" type="line"/>
      <point x="350" y="328" type="line"/>
      <point x="351" y="415"/>
      <point x="286" y="474"/>
      <point x="188" y="474" type="curve" smooth="yes"/>
      <point x="69" y="474"/>
      <point x="10" y="394"/>
      <point x="10" y="232" type="curve" smooth="yes"/>
      <point x="10" y="69"/>
      <point x="65" y="-7"/>
    </contour>
    <contour>
      <point x="340" y="233" type="curve" smooth="yes"/>
      <point x="340" y="119"/>
      <point x="287" y="45"/>
      <point x="204" y="45" type="curve" smooth="yes"/>
      <point x="118" y="45"/>
      <point x="82" y="100"/>
      <point x="82" y="233" type="curve" smooth="yes"/>
      <point x="82" y="363"/>
      <point x="120" y="421"/>
      <point x="207" y="421" type="curve" smooth="yes"/>
      <point x="289" y="421"/>
      <point x="340" y="349"/>
    </contour>
  </outline>
</glyph>
<glyph name="h" format="2">
  <advance width="396"/>
  <unicode hex="0068"/>
  <anchor x="198" y="515" name="top"/>
  <anchor x="198" y="-42" name="bottom"/>
  <outline>
    <contour>
      <point x="10" y="0" type="line"/>
      <point x="80" y="0" type="line"/>
      <point x="80" y="267" type="line" smooth="yes"/>
      <point x="80" y="368"/>
      <point x="132" y="421"/>
      <point x="210" y="421" type="curve" smooth="yes"/>
      <point x="294" y="421"/>
      <point x="316" y="380"/>
      <point x="316" y="295" type="curve" smooth="yes"/>
      <point x="316" y="0" type="line"/>
      <point x="386" y="0" type="line"/>
      <point x="386" y="309" type="line" smooth="yes"/>
      <point x="386" y="400"/>
      <point x="357" y="475"/>
      <point x="229" y="475" type="curve" smooth="yes"/>
      <point x="129" y="475"/>
      <point x="80" y="423"/>
      <point x="65" y="329" type="curve"/>
      <point x="80" y="329" type="line"/>
      <point x="80" y="675" type="line"/>
      <point x="10" y="675" type="line"/>
    </contour>
  </outline>
</glyph>
<glyph name="i" format="2">
  <advance width="270"/>
  <unicode hex="0069"/>
  <anchor x="134.0" y="-42" name="bottom"/>
  <outline>
    <contour>
      <point x="100" y="0" type="line"/>
      <point x="170" y="0" type="line"/>
      <point x="170" y="465" type="line"/>
      <point x="100" y="465" type="line"/>
    </contour>
    <contour>
      <point x="97" y="542" type="line"/>
      <point x="173" y="542" type="line"/>
      <point x="173" y="615" type="line"/>
      <point x="97" y="615" type="line"/>
    </contour>
  </outline>
</glyph>
<glyph name="j" format="2">
  <advance width="96"/>
  <unicode hex="006A"/>
  <outline>
    <contour>
      <point x="-17" y="-200" type="line" smooth="yes"/>
      <point x="62" y="-200"/>
      <point x="83" y="-157"/>
      <point x="83" y="-85" type="curve" smooth="yes"/>
      <point x="83" y="465" type="line"/>
      <point x="13" y="465" type="line"/>
      <point x="13" y="-86" type="line" smooth="yes"/>
      <point x="13" y="-128"/>
      <point x="0" y="-140"/>
      <point x="-31" y="-140" type="curve" smooth="yes"/>
      <point x="-71" y="-140" type="line"/>
      <point x="-71" y="-200" type="line"/>
    </contour>
    <contour>
      <point x="10" y="542" type="line"/>
      <point x="86" y="542" type="line"/>
      <point x="86" y="615" type="line"/>
      <point x="10" y="615" type="line"/>
    </contour>
  </outline>
</glyph>
<glyph name="k" format="2">
  <advance width="400"/>
  <unicode hex="006B"/>
  <outline>
    <contour>
      <point x="381" y="465" type="line"/>
      <point x="300" y="465" type="line"/>
      <point x="35" y="179" type="line"/>
      <point x="35" y="115" type="line"/>
      <point x="151" y="223" type="line"/>
      <point x="155" y="228" type="line"/>
    </contour>
    <contour>
      <point x="80" y="675" type="line"/>
      <point x="10" y="675" type="line"/>
      <point x="10" y="0" type="line"/>
      <point x="80" y="0" type="line"/>
    </contour>
    <contour>
      <point x="310" y="0" type="line"/>
      <point x="390" y="0" type="line"/>
      <point x="175" y="274" type="line"/>
      <point x="124" y="235" type="line"/>
    </contour>
  </outline>
</glyph>
<glyph name="l" format="2">
  <advance width="270"/>
  <unicode hex="006C"/>
  <outline>
    <contour>
      <point x="100" y="0" type="line"/>
      <point x="170" y="0" type="line"/>
      <point x="170" y="675" type="line"/>
      <point x="100" y="675" type="line"/>
    </contour>
  </outline>
</glyph>
<glyph name="m" format="2">
  <advance width="830"/>
  <unicode hex="006D"/>
  <anchor x="416" y="525" name="top"/>
  <outline>
    <contour>
      <point x="380" y="0" type="line"/>
      <point x="450" y="0" type="line"/>
      <point x="450" y="267" type="line" smooth="yes"/>
      <point x="450" y="368"/>
      <point x="500" y="420"/>
      <point x="571" y="420" type="curve" smooth="yes"/>
      <point x="649" y="420"/>
      <point x="677" y="394"/>
      <point x="677" y="296" type="curve" smooth="yes"/>
      <point x="677" y="0" type="line"/>
      <point x="747" y="0" type="line"/>
      <point x="747" y="308" type="line" smooth="yes"/>
      <point x="747" y="429"/>
      <point x="701" y="475"/>
      <point x="596" y="475" type="curve" smooth="yes"/>
      <point x="522" y="475"/>
      <point x="445" y="433"/>
      <point x="431" y="329" type="curve"/>
      <point x="446" y="330" type="line"/>
      <point x="446" y="414"/>
      <point x="418" y="475"/>
      <point x="298" y="475" type="curve" smooth="yes"/>
      <point x="193" y="475"/>
      <point x="152" y="408"/>
      <point x="139" y="329" type="curve"/>
      <point x="154" y="329" type="line"/>
      <point x="155" y="465" type="line"/>
      <point x="84" y="465" type="line"/>
      <point x="84" y="0" type="line"/>
      <point x="154" y="0" type="line"/>
      <point x="154" y="267" type="line" smooth="yes"/>
      <point x="154" y="366"/>
      <point x="210" y="421"/>
      <point x="275" y="421" type="curve" smooth="yes"/>
      <point x="348" y="421"/>
      <point x="380" y="394"/>
      <point x="380" y="296" type="curve" smooth="yes"/>
    </contour>
  </outline>
</glyph>
<glyph name="n" format="2">
  <advance width="560"/>
  <unicode hex="006E"/>
  <outline>
    <contour>
      <point x="398" y="0" type="line"/>
      <point x="468" y="0" type="line"/>
      <point x="468" y="308" type="line" smooth="yes"/>
      <point x="468" y="427"/>
      <point x="415" y="475"/>
      <point x="312" y="475" type="curve" smooth="yes"/>
      <point x="207" y="475"/>
      <point x="162" y="419"/>
      <point x="148" y="329" type="curve"/>
      <point x="162" y="329" type="line"/>
      <point x="162" y="465" type="line"/>
      <point x="92" y="465" type="line"/>
      <point x="92" y="0" type="line"/>
      <point x="162" y="0" type="line"/>
      <point x="162" y="266" type="line" smooth="yes"/>
      <point x="162" y="367"/>
      <point x="214" y="421"/>
      <point x="292" y="421" type="curve" smooth="yes"/>
      <point x="366" y="421"/>
      <point x="398" y="392"/>
      <point x="398" y="296" type="curve" smooth="yes"/>
    </contour>
  </outline>
</glyph>
<glyph name="o" format="2">
  <advance width="439"/>
  <unicode hex="006F"/>
  <anchor x="222" y="525" name="top"/>
  <anchor x="199" y="-43" name="bottom"/>
  <outline>
    <contour>
      <point x="355" y="237" type="curve" smooth="yes"/>
      <point x="355" y="92"/>
      <point x="303" y="43"/>
      <point x="223" y="43" type="curve" smooth="yes" identifier="NKPj1PKRg4"/>
      <point x="148" y="43"/>
      <point x="83" y="94"/>
      <point x="83" y="237" type="curve" smooth="yes"/>
      <point x="83" y="377"/>
      <point x="139" y="422"/>
      <point x="222" y="422" type="curve" smooth="yes"/>
      <point x="306" y="422"/>
      <point x="355" y="374"/>
    </contour>
    <contour>
      <point x="429" y="233" type="curve" smooth="yes"/>
      <point x="429" y="395"/>
      <point x="360" y="475"/>
      <point x="222" y="475" type="curve" smooth="yes"/>
      <point x="89" y="475"/>
      <point x="10" y="398"/>
      <point x="10" y="235" type="curve" smooth="yes"/>
      <point x="10" y="64"/>
      <point x="97" y="-10"/>
      <point x="219" y="-10" type="curve" smooth="yes" identifier="uEJpqezD8M"/>
      <point x="349" y="-10"/>
      <point x="429" y="66"/>
    </contour>
  </outline>
</glyph>
<glyph name="p" format="2">
  <advance width="420"/>
  <unicode hex="0070"/>
  <anchor x="211" y="525" name="top"/>
  <outline>
    <contour>
      <point x="410" y="234" type="curve" smooth="yes"/>
      <point x="410" y="382"/>
      <point x="361" y="475"/>
      <point x="233" y="475" type="curve" smooth="yes"/>
      <point x="143" y="475"/>
      <point x="91" y="429"/>
      <point x="78" y="357" type="curve"/>
      <point x="81" y="357" type="line"/>
      <point x="81" y="465" type="line"/>
      <point x="10" y="465" type="line"/>
      <point x="10" y="-190" type="line"/>
      <point x="81" y="-190" type="line"/>
      <point x="81" y="104" type="line"/>
      <point x="74" y="104" type="line"/>
      <point x="94" y="21"/>
      <point x="152" y="-10"/>
      <point x="234" y="-10" type="curve" smooth="yes"/>
      <point x="364" y="-10"/>
      <point x="410" y="91"/>
    </contour>
    <contour>
      <point x="338" y="233" type="curve" smooth="yes"/>
      <point x="338" y="108"/>
      <point x="306" y="42"/>
      <point x="214" y="42" type="curve" smooth="yes"/>
      <point x="130" y="42"/>
      <point x="81" y="91"/>
      <point x="81" y="228" type="curve" smooth="yes"/>
      <point x="81" y="386"/>
      <point x="141" y="421"/>
      <point x="216" y="421" type="curve" smooth="yes"/>
      <point x="305" y="421"/>
      <point x="338" y="356"/>
    </contour>
  </outline>
</glyph>
<glyph name="q" format="2">
  <advance width="426"/>
  <unicode hex="0071"/>
  <outline>
    <contour>
      <point x="189" y="-10" type="curve" smooth="yes"/>
      <point x="272" y="-10"/>
      <point x="339" y="20"/>
      <point x="355" y="127" type="curve"/>
      <point x="346" y="127" type="line"/>
      <point x="346" y="-190" type="line"/>
      <point x="416" y="-190" type="line"/>
      <point x="416" y="465" type="line"/>
      <point x="346" y="465" type="line"/>
      <point x="346" y="328" type="line"/>
      <point x="356" y="328" type="line"/>
      <point x="356" y="429"/>
      <point x="275" y="475"/>
      <point x="194" y="475" type="curve" smooth="yes"/>
      <point x="76" y="475"/>
      <point x="10" y="394"/>
      <point x="10" y="231" type="curve" smooth="yes"/>
      <point x="10" y="69"/>
      <point x="72" y="-10"/>
    </contour>
    <contour>
      <point x="208" y="44" type="curve" smooth="yes"/>
      <point x="126" y="44"/>
      <point x="82" y="103"/>
      <point x="82" y="233" type="curve" smooth="yes"/>
      <point x="82" y="361"/>
      <point x="128" y="422"/>
      <point x="208" y="422" type="curve" smooth="yes"/>
      <point x="288" y="422"/>
      <point x="346" y="380"/>
      <point x="346" y="239" type="curve" smooth="yes"/>
      <point x="346" y="83"/>
      <point x="278" y="44"/>
    </contour>
  </outline>
</glyph>
<glyph name="r" format="2">
  <advance width="257"/>
  <unicode hex="0072"/>
  <anchor x="119" y="525" name="top"/>
  <anchor x="119" y="-42" name="bottom"/>
  <outline>
    <contour>
      <point x="10" y="0" type="line"/>
      <point x="81" y="0" type="line"/>
      <point x="81" y="264" type="line" smooth="yes"/>
      <point x="81" y="351"/>
      <point x="132" y="410"/>
      <point x="206" y="410" type="curve" smooth="yes"/>
      <point x="222" y="410"/>
      <point x="235" y="409"/>
      <point x="247" y="407" type="curve"/>
      <point x="247" y="473" type="line"/>
      <point x="238" y="474"/>
      <point x="229" y="475"/>
      <point x="217" y="475" type="curve" smooth="yes"/>
      <point x="144" y="475"/>
      <point x="90" y="427"/>
      <point x="77" y="350" type="curve"/>
      <point x="81" y="350" type="line"/>
      <point x="82" y="465" type="line"/>
      <point x="10" y="465" type="line"/>
    </contour>
  </outline>
</glyph>
<glyph name="s" format="2">
  <advance width="395"/>
  <unicode hex="0073"/>
  <anchor x="197.0" y="525" name="top"/>
  <anchor x="198.0" y="-42" name="bottom"/>
  <outline>
    <contour>
      <point x="385" y="127" type="curve" smooth="yes"/>
      <point x="385" y="226"/>
      <point x="300" y="252"/>
      <point x="223" y="267" type="curve" smooth="yes"/>
      <point x="123" y="289"/>
      <point x="95" y="311"/>
      <point x="95" y="352" type="curve" smooth="yes"/>
      <point x="95" y="397"/>
      <point x="135" y="421"/>
      <point x="199" y="421" type="curve" smooth="yes"/>
      <point x="259" y="421"/>
      <point x="306" y="402"/>
      <point x="306" y="353" type="curve"/>
      <point x="371" y="353" type="line"/>
      <point x="371" y="436"/>
      <point x="300" y="475"/>
      <point x="200" y="475" type="curve" smooth="yes"/>
      <point x="95" y="475"/>
      <point x="28" y="428"/>
      <point x="28" y="347" type="curve" smooth="yes"/>
      <point x="28" y="271"/>
      <point x="80" y="229"/>
      <point x="186" y="208" type="curve" smooth="yes"/>
      <point x="271" y="192"/>
      <point x="318" y="177"/>
      <point x="318" y="121" type="curve" smooth="yes"/>
      <point x="318" y="63"/>
      <point x="272" y="42"/>
      <point x="200" y="42" type="curve" smooth="yes"/>
      <point x="108" y="42"/>
      <point x="78" y="79"/>
      <point x="78" y="120" type="curve"/>
      <point x="10" y="120" type="line"/>
      <point x="10" y="21"/>
      <point x="93" y="-10"/>
      <point x="198" y="-10" type="curve" smooth="yes"/>
      <point x="323" y="-10"/>
      <point x="385" y="38"/>
    </contour>
  </outline>
</glyph>
<glyph name="t" format="2">
  <advance width="303"/>
  <unicode hex="0074"/>
  <anchor x="134" y="519" name="top"/>
  <anchor x="133" y="-42" name="bottom"/>
  <outline>
    <contour>
      <point x="217" y="0" type="curve" smooth="yes"/>
      <point x="293" y="0" type="line"/>
      <point x="293" y="60" type="line"/>
      <point x="236" y="60" type="line" smooth="yes"/>
      <point x="180" y="60"/>
      <point x="168" y="78"/>
      <point x="168" y="130" type="curve" smooth="yes"/>
      <point x="168" y="587" type="line"/>
      <point x="97" y="587" type="line"/>
      <point x="97" y="114" type="line" smooth="yes"/>
      <point x="97" y="41"/>
      <point x="126" y="0"/>
    </contour>
    <contour>
      <point x="10" y="412" type="line"/>
      <point x="293" y="412" type="line"/>
      <point x="293" y="465" type="line"/>
      <point x="10" y="465" type="line"/>
    </contour>
  </outline>
</glyph>
<glyph name="u" format="2">
  <advance width="396"/>
  <unicode hex="0075"/>
  <anchor x="198" y="525" name="top"/>
  <anchor x="194" y="-42" name="bottom"/>
  <outline>
    <contour>
      <point x="80" y="465" type="line"/>
      <point x="10" y="465" type="line"/>
      <point x="10" y="158" type="line" smooth="yes"/>
      <point x="10" y="39"/>
      <point x="56" y="-10"/>
      <point x="160" y="-10" type="curve" smooth="yes"/>
      <point x="275" y="-10"/>
      <point x="316" y="62"/>
      <point x="330" y="135" type="curve"/>
      <point x="316" y="135" type="line"/>
      <point x="316" y="0" type="line"/>
      <point x="386" y="0" type="line"/>
      <point x="386" y="465" type="line"/>
      <point x="316" y="465" type="line"/>
      <point x="316" y="198" type="line" smooth="yes"/>
      <point x="316" y="100"/>
      <point x="263" y="44"/>
      <point x="184" y="44" type="curve" smooth="yes"/>
      <point x="109" y="44"/>
      <point x="80" y="75"/>
      <point x="80" y="169" type="curve" smooth="yes"/>
    </contour>
  </outline>
</glyph>
<glyph name="v" format="2">
  <advance width="451"/>
  <unicode hex="0076"/>
  <anchor x="214.0" y="525" name="top"/>
  <outline>
    <contour>
      <point x="268" y="0" type="line"/>
      <point x="441" y="465" type="line"/>
      <point x="368" y="465" type="line"/>
      <point x="215" y="25" type="line"/>
      <point x="244" y="25" type="line"/>
      <point x="84" y="465" type="line"/>
      <point x="10" y="465" type="line"/>
      <point x="187" y="0" type="line"/>
    </contour>
  </outline>
</glyph>
<glyph name="w" format="2">
  <advance width="729"/>
  <unicode hex="0077"/>
  <anchor x="366" y="525" name="top"/>
  <outline>
    <contour>
      <point x="162" y="0" type="line"/>
      <point x="241" y="0" type="line"/>
      <point x="373" y="435" type="line"/>
      <point x="356" y="435" type="line"/>
      <point x="483" y="0" type="line"/>
      <point x="565" y="0" type="line"/>
      <point x="719" y="465" type="line"/>
      <point x="650" y="465" type="line"/>
      <point x="514" y="23" type="line"/>
      <point x="535" y="23" type="line"/>
      <point x="404" y="465" type="line"/>
      <point x="322" y="465" type="line"/>
      <point x="192" y="23" type="line"/>
      <point x="212" y="23" type="line"/>
      <point x="80" y="465" type="line"/>
      <point x="10" y="465" type="line"/>
    </contour>
  </outline>
</glyph>
<glyph name="x" format="2">
  <advance width="442"/>
  <unicode hex="0078"/>
  <anchor x="222.0" y="525" name="top"/>
  <outline>
    <contour>
      <point x="199" y="228" type="line"/>
      <point x="353" y="0" type="line"/>
      <point x="432" y="0" type="line"/>
      <point x="249" y="257" type="line"/>
      <point x="234" y="257" type="line"/>
      <point x="97" y="465" type="line"/>
      <point x="19" y="465" type="line"/>
      <point x="188" y="228" type="line"/>
    </contour>
    <contour>
      <point x="243" y="213" type="line"/>
      <point x="421" y="465" type="line"/>
      <point x="343" y="465" type="line"/>
      <point x="208" y="262" type="line"/>
      <point x="198" y="262" type="line"/>
      <point x="10" y="0" type="line"/>
      <point x="88" y="0" type="line"/>
      <point x="231" y="213" type="line"/>
    </contour>
  </outline>
</glyph>
<glyph name="y" format="2">
  <advance width="453"/>
  <unicode hex="0079"/>
  <anchor x="220.0" y="525" name="top"/>
  <outline>
    <contour>
      <point x="79" y="-200" type="line" smooth="yes"/>
      <point x="167" y="-200"/>
      <point x="193" y="-179"/>
      <point x="232" y="-79" type="curve" smooth="yes"/>
      <point x="443" y="465" type="line"/>
      <point x="369" y="465" type="line"/>
      <point x="213" y="40" type="line"/>
      <point x="248" y="40" type="line"/>
      <point x="86" y="465" type="line"/>
      <point x="10" y="465" type="line"/>
      <point x="201" y="-17" type="line"/>
      <point x="230" y="-17" type="line"/>
      <point x="199" y="19" type="line"/>
      <point x="160" y="-82" type="line" smooth="yes"/>
      <point x="142" y="-127"/>
      <point x="132" y="-143"/>
      <point x="93" y="-143" type="curve" smooth="yes"/>
      <point x="33" y="-143" type="line"/>
      <point x="33" y="-200" type="line"/>
    </contour>
  </outline>
</glyph>
<glyph name="z" format="2">
  <advance width="461"/>
  <unicode hex="007A"/>
  <outline>
    <contour>
      <point x="51" y="0" type="line"/>
      <point x="411" y="0" type="line"/>
      <point x="411" y="55" type="line"/>
      <point x="89" y="55" type="line"/>
      <point x="105" y="27" type="line"/>
      <point x="397" y="412" type="line"/>
      <point x="397" y="465" type="line"/>
      <point x="57" y="465" type="line"/>
      <point x="57" y="412" type="line"/>
      <point x="358" y="412" type="line"/>
      <point x="344" y="442" type="line"/>
      <point x="51" y="54" type="line"/>
    </contour>
  </outline>
</glyph>
<glyph name="braceleft" format="2">
  <advance width="305"/>
  <unicode hex="007B"/>
  <outline>
    <contour>
      <point x="295" y="-200" type="line"/>
      <point x="295" y="-146" type="line"/>
      <point x="258" y="-146" type="line" smooth="yes"/>
      <point x="204" y="-146"/>
      <point x="184" y="-129"/>
      <point x="184" y="-79" type="curve" smooth="yes"/>
      <point x="184" y="128" type="line" smooth="yes"/>
      <point x="184" y="188"/>
      <point x="143" y="227"/>
      <point x="72" y="238" type="curve"/>
      <point x="72" y="231" type="line"/>
      <point x="143" y="244"/>
      <point x="184" y="285"/>
      <point x="184" y="345" type="curve" smooth="yes"/>
      <point x="184" y="556" type="line" smooth="yes"/>
      <point x="184" y="612"/>
      <point x="205" y="633"/>
      <point x="258" y="633" type="curve" smooth="yes"/>
      <point x="295" y="633" type="line"/>
      <point x="295" y="685" type="line"/>
      <point x="226" y="685" type="line" smooth="yes"/>
      <point x="152" y="685"/>
      <point x="114" y="640"/>
      <point x="114" y="549" type="curve" smooth="yes"/>
      <point x="114" y="362" type="line" smooth="yes"/>
      <point x="114" y="296"/>
      <point x="81" y="263"/>
      <point x="10" y="261" type="curve"/>
      <point x="10" y="210" type="line"/>
      <point x="80" y="208"/>
      <point x="114" y="174"/>
      <point x="114" y="108" type="curve" smooth="yes"/>
      <point x="114" y="-84" type="line" smooth="yes"/>
      <point x="114" y="-164"/>
      <point x="150" y="-200"/>
      <point x="226" y="-200" type="curve" smooth="yes"/>
    </contour>
  </outline>
</glyph>
<glyph name="bar" format="2">
  <advance width="460"/>
  <unicode hex="007C"/>
  <outline>
    <contour>
      <point x="195" y="-190" type="line"/>
      <point x="265" y="-190" type="line"/>
      <point x="265" y="675" type="line"/>
      <point x="195" y="675" type="line"/>
    </contour>
  </outline>
</glyph>
<glyph name="braceright" format="2">
  <advance width="305"/>
  <unicode hex="007D"/>
  <outline>
    <contour>
      <point x="10" y="-200" type="line"/>
      <point x="79" y="-200" type="line" smooth="yes"/>
      <point x="155" y="-200"/>
      <point x="191" y="-164"/>
      <point x="191" y="-84" type="curve" smooth="yes"/>
      <point x="191" y="108" type="line" smooth="yes"/>
      <point x="191" y="174"/>
      <point x="225" y="208"/>
      <point x="295" y="210" type="curve"/>
      <point x="295" y="261" type="line"/>
      <point x="224" y="263"/>
      <point x="191" y="296"/>
      <point x="191" y="362" type="curve" smooth="yes"/>
      <point x="191" y="549" type="line" smooth="yes"/>
      <point x="191" y="640"/>
      <point x="153" y="685"/>
      <point x="79" y="685" type="curve" smooth="yes"/>
      <point x="10" y="685" type="line"/>
      <point x="10" y="633" type="line"/>
      <point x="47" y="633" type="line" smooth="yes"/>
      <point x="100" y="633"/>
      <point x="121" y="612"/>
      <point x="121" y="556" type="curve" smooth="yes"/>
      <point x="121" y="345" type="line" smooth="yes"/>
      <point x="121" y="285"/>
      <point x="162" y="244"/>
      <point x="233" y="231" type="curve"/>
      <point x="233" y="238" type="line"/>
      <point x="162" y="227"/>
      <point x="121" y="188"/>
      <point x="121" y="128" type="curve" smooth="yes"/>
      <point x="121" y="-79" type="line" smooth="yes"/>
      <point x="121" y="-129"/>
      <point x="101" y="-146"/>
      <point x="47" y="-146" type="curve" smooth="yes"/>
      <point x="10" y="-146" type="line"/>
    </contour>
  </outline>
</glyph>
<glyph name="asciitilde" format="2">
  <advance width="462"/>
  <unicode hex="007E"/>
  <outline>
    <contour>
      <point x="338" y="240" type="curve" smooth="yes"/>
      <point x="384" y="240"/>
      <point x="415" y="248"/>
      <point x="452" y="274" type="curve"/>
      <point x="452" y="335" type="line"/>
      <point x="421" y="311"/>
      <point x="386" y="296"/>
      <point x="346" y="296" type="curve" smooth="yes"/>
      <point x="276" y="296"/>
      <point x="211" y="346"/>
      <point x="124" y="346" type="curve" smooth="yes"/>
      <point x="77" y="346"/>
      <point x="41" y="331"/>
      <point x="10" y="310" type="curve"/>
      <point x="10" y="252" type="line"/>
      <point x="44" y="275"/>
      <point x="74" y="289"/>
      <point x="118" y="289" type="curve" smooth="yes"/>
      <point x="185" y="289"/>
      <point x="264" y="240"/>
    </contour>
  </outline>
</glyph>
<glyph name="eight" format="2">
  <advance width="435"/>
  <outline>
    <contour>
      <point x="425" y="168" type="curve" smooth="yes"/>
      <point x="425" y="254"/>
      <point x="368" y="312"/>
      <point x="289" y="322" type="curve"/>
      <point x="289" y="317" type="line"/>
      <point x="361" y="327"/>
      <point x="409" y="382"/>
      <point x="409" y="460" type="curve" smooth="yes"/>
      <point x="409" y="543"/>
      <point x="348" y="615"/>
      <point x="216" y="615" type="curve" smooth="yes"/>
      <point x="90" y="615"/>
      <point x="25" y="545"/>
      <point x="25" y="461" type="curve" smooth="yes"/>
      <point x="25" y="382"/>
      <point x="75" y="332"/>
      <point x="143" y="317" type="curve"/>
      <point x="143" y="319" type="line"/>
      <point x="73" y="309"/>
      <point x="10" y="256"/>
      <point x="10" y="167" type="curve" smooth="yes"/>
      <point x="10" y="63"/>
      <point x="72" y="-10"/>
      <point x="217" y="-10" type="curve" smooth="yes"/>
      <point x="362" y="-10"/>
      <point x="425" y="66"/>
    </contour>
    <contour>
      <point x="351" y="169" type="curve" smooth="yes"/>
      <point x="351" y="92"/>
      <point x="312" y="44"/>
      <point x="218" y="44" type="curve" smooth="yes"/>
      <point x="126" y="44"/>
      <point x="84" y="98"/>
      <point x="84" y="168" type="curve" smooth="yes"/>
      <point x="84" y="233"/>
      <point x="120" y="291"/>
      <point x="215" y="291" type="curve" smooth="yes"/>
      <point x="320" y="291"/>
      <point x="351" y="232"/>
    </contour>
    <contour>
      <point x="336" y="455" type="curve" smooth="yes"/>
      <point x="336" y="408"/>
      <point x="320" y="345"/>
      <point x="216" y="345" type="curve" smooth="yes"/>
      <point x="120" y="345"/>
      <point x="97" y="408"/>
      <point x="97" y="455" type="curve" smooth="yes"/>
      <point x="97" y="518"/>
      <point x="132" y="562"/>
      <point x="216" y="562" type="curve" smooth="yes"/>
      <point x="305" y="562"/>
      <point x="336" y="518"/>
    </contour>
  </outline>
</glyph>
<glyph name="five" format="2">
  <advance width="439"/>
  <outline>
    <contour>
      <point x="429" y="196" type="curve" smooth="yes"/>
      <point x="429" y="313"/>
      <point x="355" y="383"/>
      <point x="232" y="383" type="curve" smooth="yes"/>
      <point x="170" y="383"/>
      <point x="114" y="361"/>
      <point x="82" y="325" type="curve"/>
      <point x="99" y="319" type="line"/>
      <point x="115" y="577" type="line"/>
      <point x="82" y="544" type="line"/>
      <point x="395" y="544" type="line"/>
      <point x="395" y="605" type="line"/>
      <point x="47" y="605" type="line"/>
      <point x="28" y="280" type="line"/>
      <point x="97" y="280" type="line"/>
      <point x="128" y="310"/>
      <point x="169" y="325"/>
      <point x="219" y="325" type="curve" smooth="yes"/>
      <point x="306" y="325"/>
      <point x="354" y="276"/>
      <point x="354" y="190" type="curve" smooth="yes"/>
      <point x="354" y="96"/>
      <point x="305" y="49"/>
      <point x="207" y="49" type="curve" smooth="yes"/>
      <point x="129" y="49"/>
      <point x="78" y="86"/>
      <point x="78" y="141" type="curve"/>
      <point x="10" y="141" type="line"/>
      <point x="10" y="48"/>
      <point x="84" y="-10"/>
      <point x="204" y="-10" type="curve" smooth="yes"/>
      <point x="345" y="-10"/>
      <point x="429" y="66"/>
    </contour>
  </outline>
</glyph>
<glyph name="four" format="2">
  <advance width="468"/>
  <outline>
    <contour>
      <point x="458" y="140" type="line"/>
      <point x="458" y="197" type="line"/>
      <point x="60" y="197" type="line"/>
      <point x="64" y="171" type="line"/>
      <point x="329" y="547" type="line"/>
      <point x="303" y="547" type="line"/>
      <point x="303" y="0" type="line"/>
      <point x="369" y="0" type="line"/>
      <point x="369" y="605" type="line"/>
      <point x="297" y="605" type="line"/>
      <point x="10" y="196" type="line"/>
      <point x="10" y="140" type="line"/>
    </contour>
  </outline>
</glyph>
<glyph name="nine" format="2">
  <advance width="450"/>
  <outline>
    <contour>
      <point x="10" y="407" type="curve" smooth="yes"/>
      <point x="10" y="288"/>
      <point x="87" y="211"/>
      <point x="205" y="211" type="curve" smooth="yes"/>
      <point x="303" y="211"/>
      <point x="373" y="263"/>
      <point x="381" y="341" type="curve"/>
      <point x="370" y="341" type="line"/>
      <point x="370" y="316" type="line" smooth="yes"/>
      <point x="370" y="135"/>
      <point x="318" y="48"/>
      <point x="212" y="48" type="curve" smooth="yes"/>
      <point x="143" y="48"/>
      <point x="95" y="80"/>
      <point x="95" y="125" type="curve"/>
      <point x="26" y="125" type="line"/>
      <point x="28" y="44"/>
      <point x="98" y="-10"/>
      <point x="203" y="-10" type="curve" smooth="yes"/>
      <point x="356" y="-10"/>
      <point x="440" y="107"/>
      <point x="440" y="321" type="curve" smooth="yes"/>
      <point x="440" y="516"/>
      <point x="366" y="615"/>
      <point x="223" y="615" type="curve" smooth="yes"/>
      <point x="92" y="615"/>
      <point x="10" y="536"/>
    </contour>
    <contour>
      <point x="82" y="411" type="curve" smooth="yes"/>
      <point x="82" y="502"/>
      <point x="134" y="557"/>
      <point x="219" y="557" type="curve" smooth="yes"/>
      <point x="302" y="557"/>
      <point x="362" y="495"/>
      <point x="362" y="408" type="curve" smooth="yes"/>
      <point x="362" y="326"/>
      <point x="302" y="268"/>
      <point x="219" y="268" type="curve" smooth="yes"/>
      <point x="135" y="268"/>
      <point x="82" y="322"/>
    </contour>
  </outline>
</glyph>
<glyph name="one" format="2">
  <advance width="215"/>
  <outline>
    <contour>
      <point x="135" y="0" type="line"/>
      <point x="205" y="0" type="line"/>
      <point x="205" y="605" type="line"/>
      <point x="142" y="605" type="line"/>
      <point x="10" y="515" type="line"/>
      <point x="10" y="447" type="line"/>
      <point x="164" y="558" type="line"/>
      <point x="135" y="568" type="line"/>
    </contour>
  </outline>
</glyph>
<glyph name="seven" format="2">
  <advance width="423"/>
  <outline>
    <contour>
      <point x="413" y="547" type="curve"/>
      <point x="413" y="605" type="line"/>
      <point x="10" y="605" type="line"/>
      <point x="10" y="544" type="line"/>
      <point x="383" y="544" type="line"/>
      <point x="368" y="570" type="line"/>
      <point x="222" y="393"/>
      <point x="126" y="197"/>
      <point x="126" y="0" type="curve"/>
      <point x="200" y="0" type="line"/>
      <point x="200" y="207"/>
      <point x="271" y="363"/>
    </contour>
  </outline>
</glyph>
<glyph name="six" format="2">
  <advance width="449"/>
  <outline>
    <contour>
      <point x="439" y="197" type="curve" smooth="yes"/>
      <point x="439" y="315"/>
      <point x="363" y="390"/>
      <point x="245" y="390" type="curve" smooth="yes"/>
      <point x="147" y="390"/>
      <point x="78" y="339"/>
      <point x="70" y="264" type="curve"/>
      <point x="81" y="264" type="line"/>
      <point x="81" y="289" type="line" smooth="yes"/>
      <point x="81" y="469"/>
      <point x="133" y="557"/>
      <point x="238" y="557" type="curve" smooth="yes"/>
      <point x="306" y="557"/>
      <point x="355" y="525"/>
      <point x="355" y="480" type="curve"/>
      <point x="422" y="480" type="line"/>
      <point x="422" y="561"/>
      <point x="352" y="615"/>
      <point x="246" y="615" type="curve" smooth="yes"/>
      <point x="93" y="615"/>
      <point x="10" y="499"/>
      <point x="10" y="284" type="curve" smooth="yes"/>
      <point x="10" y="89"/>
      <point x="84" y="-10"/>
      <point x="227" y="-10" type="curve" smooth="yes"/>
      <point x="358" y="-10"/>
      <point x="439" y="69"/>
    </contour>
    <contour>
      <point x="367" y="193" type="curve" smooth="yes"/>
      <point x="367" y="103"/>
      <point x="315" y="48"/>
      <point x="231" y="48" type="curve" smooth="yes"/>
      <point x="148" y="48"/>
      <point x="89" y="111"/>
      <point x="89" y="197" type="curve" smooth="yes"/>
      <point x="89" y="278"/>
      <point x="148" y="334"/>
      <point x="231" y="334" type="curve" smooth="yes"/>
      <point x="315" y="334"/>
      <point x="367" y="281"/>
    </contour>
  </outline>
</glyph>
<glyph name="three" format="2">
  <advance width="438"/>
  <outline>
    <contour>
      <point x="428" y="166" type="curve" smooth="yes"/>
      <point x="428" y="268"/>
      <point x="353" y="329"/>
      <point x="231" y="327" type="curve"/>
      <point x="231" y="300" type="line"/>
      <point x="346" y="305"/>
      <point x="411" y="362"/>
      <point x="411" y="459" type="curve" smooth="yes"/>
      <point x="411" y="560"/>
      <point x="344" y="615"/>
      <point x="221" y="615" type="curve" smooth="yes"/>
      <point x="100" y="615"/>
      <point x="20" y="549"/>
      <point x="20" y="454" type="curve"/>
      <point x="87" y="454" type="line"/>
      <point x="87" y="519"/>
      <point x="135" y="557"/>
      <point x="217" y="557" type="curve" smooth="yes"/>
      <point x="297" y="557"/>
      <point x="339" y="521"/>
      <point x="339" y="451" type="curve" smooth="yes"/>
      <point x="339" y="380"/>
      <point x="290" y="340"/>
      <point x="201" y="340" type="curve" smooth="yes"/>
      <point x="155" y="340" type="line"/>
      <point x="155" y="279" type="line"/>
      <point x="205" y="279" type="line" smooth="yes"/>
      <point x="299" y="279"/>
      <point x="354" y="233"/>
      <point x="354" y="159" type="curve" smooth="yes"/>
      <point x="354" y="88"/>
      <point x="308" y="50"/>
      <point x="221" y="50" type="curve" smooth="yes"/>
      <point x="133" y="50"/>
      <point x="77" y="94"/>
      <point x="77" y="161" type="curve"/>
      <point x="10" y="161" type="line"/>
      <point x="10" y="56"/>
      <point x="91" y="-10"/>
      <point x="216" y="-10" type="curve" smooth="yes"/>
      <point x="351" y="-10"/>
      <point x="428" y="54"/>
    </contour>
  </outline>
</glyph>
<glyph name="two" format="2">
  <advance width="430"/>
  <outline>
    <contour>
      <point x="14" y="0" type="line"/>
      <point x="420" y="0" type="line"/>
      <point x="420" y="59" type="line"/>
      <point x="51" y="59" type="line"/>
      <point x="71" y="34" type="line"/>
      <point x="186" y="138" type="line" smooth="yes"/>
      <point x="374" y="310"/>
      <point x="409" y="364"/>
      <point x="409" y="445" type="curve" smooth="yes"/>
      <point x="409" y="557"/>
      <point x="341" y="615"/>
      <point x="211" y="615" type="curve" smooth="yes"/>
      <point x="91" y="615"/>
      <point x="10" y="552"/>
      <point x="10" y="458" type="curve"/>
      <point x="78" y="458" type="line"/>
      <point x="78" y="515"/>
      <point x="132" y="556"/>
      <point x="208" y="556" type="curve" smooth="yes"/>
      <point x="290" y="556"/>
      <point x="339" y="514"/>
      <point x="339" y="448" type="curve" smooth="yes"/>
      <point x="339" y="379"/>
      <point x="313" y="339"/>
      <point x="151" y="187" type="curve" smooth="yes"/>
      <point x="14" y="60" type="line"/>
    </contour>
  </outline>
</glyph>
<glyph name="zero" format="2">
  <advance width="448"/>
  <outline>
    <contour>
      <point x="365" y="303" type="curve" smooth="yes" identifier="HWUfvAtdpV"/>
      <point x="365" y="114"/>
      <point x="309" y="49"/>
      <point x="224" y="49" type="curve" smooth="yes" identifier="7RMOTEpiEm"/>
      <point x="136" y="49"/>
      <point x="84" y="116"/>
      <point x="84" y="303" type="curve" smooth="yes" identifier="c6UtGIrppP"/>
      <point x="84" y="498"/>
      <point x="135" y="557"/>
      <point x="226" y="557" type="curve" smooth="yes" identifier="nTwCKFYDf7"/>
      <point x="311" y="557"/>
      <point x="365" y="499"/>
    </contour>
    <contour>
      <point x="438" y="303" type="curve" smooth="yes" identifier="FDO260Jc5i"/>
      <point x="438" y="546"/>
      <point x="342" y="615"/>
      <point x="226" y="615" type="curve" smooth="yes" identifier="YdnFQWCm0r"/>
      <point x="104" y="615"/>
      <point x="10" y="546"/>
      <point x="10" y="303" type="curve" smooth="yes" identifier="kNhbVaEv5l"/>
      <point x="10" y="70"/>
      <point x="104" y="-10"/>
      <point x="223" y="-10" type="curve" smooth="yes" identifier="IjT9E9CNEg"/>
      <point x="342" y="-10"/>
      <point x="438" y="70"/>
    </contour>
  </outline>
</glyph>
